<svg width="34" height="54" viewBox="0 0 34 54" fill="#94a3b8" xmlns="http://www.w3.org/2000/svg">
<g clip-path="url(#clip0_398_2231)">
<path d="M1.80788 11.241L16.2079 18.3042C16.4544 18.425 16.7253 18.4878 16.9999 18.4878C17.2744 18.4878 17.5453 18.425 17.7919 18.3042L32.1919 11.241C32.4962 11.0936 32.7529 10.8635 32.9324 10.5769C33.112 10.2904 33.2073 9.95913 33.2073 9.62098C33.2073 9.28284 33.112 8.95154 32.9324 8.66503C32.7529 8.37851 32.4962 8.14838 32.1919 8.00098L17.7919 0.935984C17.5453 0.815183 17.2744 0.75238 16.9999 0.75238C16.7253 0.75238 16.4544 0.815183 16.2079 0.935984L1.80788 8.00098C1.50355 8.14838 1.24689 8.37851 1.06731 8.66503C0.887728 8.95154 0.79248 9.28284 0.79248 9.62098C0.79248 9.95913 0.887728 10.2904 1.06731 10.5769C1.24689 10.8635 1.50355 11.0936 1.80788 11.241Z" />
<path d="M31.4001 15.0768C30.9227 15.0768 30.4648 15.2664 30.1273 15.604C29.7897 15.9416 29.6001 16.3994 29.6001 16.8768V17.1702L17.0001 23.3514L4.40005 17.1702V16.8768C4.40005 16.3994 4.21041 15.9416 3.87284 15.604C3.53528 15.2664 3.07744 15.0768 2.60005 15.0768C2.12266 15.0768 1.66483 15.2664 1.32726 15.604C0.989695 15.9416 0.800052 16.3994 0.800052 16.8768V18.2916C0.799377 18.6289 0.893521 18.9597 1.07175 19.2461C1.24997 19.5326 1.50511 19.7631 1.80805 19.9116L16.2081 26.9766C16.4546 27.0974 16.7255 27.1602 17.0001 27.1602C17.2746 27.1602 17.5455 27.0974 17.7921 26.9766L32.1921 19.9116C32.495 19.7631 32.7501 19.5326 32.9284 19.2461C33.1066 18.9597 33.2007 18.6289 33.2001 18.2916V16.8768C33.2001 16.3994 33.0104 15.9416 32.6728 15.604C32.3353 15.2664 31.8774 15.0768 31.4001 15.0768Z" />
<path d="M31.3874 23.7438C30.91 23.7438 30.4521 23.9334 30.1146 24.271C29.777 24.6085 29.5874 25.0664 29.5874 25.5438V25.8372L16.9874 32.0202L4.38736 25.8372V25.5438C4.38736 25.0664 4.19771 24.6085 3.86015 24.271C3.52258 23.9334 3.06475 23.7438 2.58736 23.7438C2.10997 23.7438 1.65213 23.9334 1.31456 24.271C0.976999 24.6085 0.787357 25.0664 0.787357 25.5438V26.9604C0.786682 27.2977 0.880826 27.6285 1.05905 27.9149C1.23728 28.2014 1.49241 28.4319 1.79536 28.5804L16.1954 35.6454C16.4419 35.7662 16.7128 35.829 16.9874 35.829C17.2619 35.829 17.5328 35.7662 17.7794 35.6454L32.1794 28.5804C32.4823 28.4319 32.7374 28.2014 32.9157 27.9149C33.0939 27.6285 33.188 27.2977 33.1874 26.9604V25.5438C33.1874 25.0664 32.9977 24.6085 32.6602 24.271C32.3226 23.9334 31.8647 23.7438 31.3874 23.7438Z" />
<path d="M31.3874 32.48C30.91 32.48 30.4521 32.6696 30.1146 33.0072C29.777 33.3448 29.5874 33.8026 29.5874 34.28V34.5734L16.9874 40.7564L4.38736 34.5734V34.28C4.38736 33.8026 4.19771 33.3448 3.86015 33.0072C3.52258 32.6696 3.06475 32.48 2.58736 32.48C2.10997 32.48 1.65213 32.6696 1.31456 33.0072C0.976999 33.3448 0.787357 33.8026 0.787357 34.28V35.6966C0.786682 36.0339 0.880826 36.3647 1.05905 36.6511C1.23728 36.9376 1.49241 37.1681 1.79536 37.3166L16.1954 44.3816C16.4419 44.5024 16.7128 44.5652 16.9874 44.5652C17.2619 44.5652 17.5328 44.5024 17.7794 44.3816L32.1794 37.3166C32.4823 37.1681 32.7374 36.9376 32.9157 36.6511C33.0939 36.3647 33.188 36.0339 33.1874 35.6966V34.28C33.1874 33.8026 32.9977 33.3448 32.6602 33.0072C32.3226 32.6696 31.8647 32.48 31.3874 32.48Z" />
<path d="M31.3874 41.22C30.91 41.22 30.4521 41.4096 30.1146 41.7472C29.777 42.0847 29.5874 42.5426 29.5874 43.02V43.3134L16.9874 49.4964L4.38736 43.3134V43.02C4.38736 42.5426 4.19771 42.0847 3.86015 41.7472C3.52258 41.4096 3.06475 41.22 2.58736 41.22C2.10997 41.22 1.65213 41.4096 1.31456 41.7472C0.976999 42.0847 0.787357 42.5426 0.787357 43.02V44.4366C0.786682 44.7739 0.880826 45.1047 1.05905 45.3911C1.23728 45.6776 1.49241 45.9081 1.79536 46.0566L16.1954 53.1216C16.4419 53.2424 16.7128 53.3052 16.9874 53.3052C17.2619 53.3052 17.5328 53.2424 17.7794 53.1216L32.1794 46.0566C32.4823 45.9081 32.7374 45.6776 32.9157 45.3911C33.0939 45.1047 33.188 44.7739 33.1874 44.4366V43.02C33.1874 42.5426 32.9977 42.0847 32.6602 41.7472C32.3226 41.4096 31.8647 41.22 31.3874 41.22Z" />
</g>
<defs>
<clipPath id="clip0_398_2231">
<rect width="34" height="54" fill="white"/>
</clipPath>
</defs>
</svg>
