<svg width="30" height="36" viewBox="0 0 30 36" fill="#94a3b8" xmlns="http://www.w3.org/2000/svg">
<path d="M9.21425 9.07143V0.375C8.34351 0.617504 7.54888 1.07781 6.90532 1.7125L1.85532 6.7625C1.22063 7.40606 0.760326 8.20068 0.517822 9.07143H9.21425Z" />
<path d="M25.4037 0.142822H12.7858V9.07139C12.7858 10.0186 12.4095 10.927 11.7398 11.5968C11.07 12.2665 10.1616 12.6428 9.21439 12.6428H0.285818V32.2857C0.271482 33.2169 0.626985 34.1158 1.27438 34.7853C1.92178 35.4547 2.80823 35.8402 3.73939 35.8571H25.4037C26.3348 35.8402 27.2213 35.4547 27.8687 34.7853C28.5161 34.1158 28.8716 33.2169 28.8573 32.2857V3.71425C28.8716 2.78305 28.5161 1.88417 27.8687 1.21468C27.2213 0.545186 26.3348 0.159731 25.4037 0.142822ZM11.0001 28.7143C11.0001 29.1879 10.812 29.6421 10.4771 29.9769C10.1422 30.3118 9.68799 30.5 9.21439 30.5C8.74079 30.5 8.28659 30.3118 7.9517 29.9769C7.61681 29.6421 7.42868 29.1879 7.42868 28.7143V25.1428C7.42868 24.6692 7.61681 24.215 7.9517 23.8801C8.28659 23.5452 8.74079 23.3571 9.21439 23.3571C9.68799 23.3571 10.1422 23.5452 10.4771 23.8801C10.812 24.215 11.0001 24.6692 11.0001 25.1428V28.7143ZM16.3572 28.7143C16.3572 29.1879 16.1691 29.6421 15.8342 29.9769C15.4993 30.3118 15.0451 30.5 14.5715 30.5C14.0979 30.5 13.6437 30.3118 13.3088 29.9769C12.974 29.6421 12.7858 29.1879 12.7858 28.7143V18C12.7858 17.5264 12.974 17.0722 13.3088 16.7373C13.6437 16.4024 14.0979 16.2143 14.5715 16.2143C15.0451 16.2143 15.4993 16.4024 15.8342 16.7373C16.1691 17.0722 16.3572 17.5264 16.3572 18V28.7143ZM21.7144 28.7143C21.7144 29.1879 21.5263 29.6421 21.1914 29.9769C20.8565 30.3118 20.4023 30.5 19.9287 30.5C19.4551 30.5 19.0009 30.3118 18.666 29.9769C18.3311 29.6421 18.143 29.1879 18.143 28.7143V21.5714C18.143 21.0978 18.3311 20.6436 18.666 20.3087C19.0009 19.9738 19.4551 19.7857 19.9287 19.7857C20.4023 19.7857 20.8565 19.9738 21.1914 20.3087C21.5263 20.6436 21.7144 21.0978 21.7144 21.5714V28.7143Z" />
</svg>
