<svg width="36" height="36" viewBox="0 0 36 36" fill="#94a3b8" xmlns="http://www.w3.org/2000/svg">
<g clip-path="url(#clip0_407_208)">
<path d="M33.1831 13.5828C32.7469 13.1754 32.4031 12.6793 32.1749 12.1279C31.9467 11.5764 31.8393 10.9825 31.8601 10.386C31.8892 9.55792 31.7476 8.73269 31.4441 7.96169C31.1405 7.1907 30.6815 6.49044 30.0955 5.90453C29.5096 5.31861 28.8094 4.85959 28.0384 4.55602C27.2674 4.25245 26.4422 4.11084 25.6141 4.14002C25.0175 4.16027 24.4235 4.05251 23.8721 3.824C23.3207 3.59548 22.8246 3.2515 22.4173 2.81522C21.8519 2.20984 21.1682 1.72716 20.4084 1.39715C19.6487 1.06714 18.8293 0.896851 18.001 0.896851C17.1727 0.896851 16.3532 1.06714 15.5935 1.39715C14.8338 1.72716 14.15 2.20984 13.5847 2.81522C13.1803 3.25541 12.6848 3.60203 12.1326 3.83085C11.5805 4.05968 10.985 4.16519 10.3879 4.14002C9.56066 4.11754 8.73745 4.26235 7.96759 4.56578C7.19772 4.86921 6.49707 5.325 5.90766 5.90582C5.3227 6.49268 4.86409 7.19309 4.56009 7.96392C4.2561 8.73474 4.11315 9.55965 4.14006 10.3878C4.1604 10.9841 4.05268 11.5778 3.82415 12.129C3.59562 12.6801 3.25159 13.1759 2.81526 13.5828C2.21031 14.1486 1.72802 14.8326 1.3983 15.5924C1.06857 16.3523 0.898437 17.1717 0.898438 18C0.898437 18.8283 1.06857 19.6478 1.3983 20.4076C1.72802 21.1674 2.21031 21.8514 2.81526 22.4172C3.25201 22.8242 3.59631 23.3202 3.82486 23.8717C4.05341 24.4232 4.1609 25.0174 4.14006 25.614C4.11142 26.442 4.25339 27.267 4.55715 28.0377C4.86091 28.8085 5.31995 29.5085 5.90576 30.0943C6.49156 30.6801 7.1916 31.1392 7.96235 31.4429C8.73311 31.7467 9.5581 31.8887 10.3861 31.86C10.9831 31.8393 11.5776 31.947 12.1295 32.1758C12.6813 32.4047 13.1776 32.7494 13.5847 33.1866C14.1504 33.7913 14.8343 34.2733 15.594 34.6029C16.3536 34.9324 17.1729 35.1025 18.001 35.1025C18.829 35.1025 19.6483 34.9324 20.4079 34.6029C21.1676 34.2733 21.8515 33.7913 22.4173 33.1866C22.8272 32.7535 23.3236 32.4115 23.8744 32.183C24.4252 31.9544 25.0179 31.8444 25.6141 31.86C26.4419 31.8884 27.2667 31.7462 28.0372 31.4424C28.8077 31.1385 29.5076 30.6794 30.0932 30.0936C30.6788 29.5079 31.1377 28.8079 31.4413 28.0373C31.745 27.2667 31.8869 26.4418 31.8583 25.614C31.8379 25.0177 31.9456 24.424 32.1742 23.8728C32.4027 23.3217 32.7467 22.826 33.1831 22.419C33.7882 21.8534 34.2707 21.1694 34.6006 20.4096C34.9305 19.6497 35.1007 18.8302 35.1007 18.0018C35.1007 17.1734 34.9305 16.3539 34.6006 15.5941C34.2707 14.8342 33.7882 14.1485 33.1831 13.5828ZM15.3001 9.90002C15.7774 9.90002 16.2353 10.0897 16.5729 10.4272C16.9104 10.7648 17.1001 11.2226 17.1001 11.7C17.1001 12.1774 16.9104 12.6352 16.5729 12.9728C16.2353 13.3104 15.7774 13.5 15.3001 13.5C14.8227 13.5 14.3648 13.3104 14.0273 12.9728C13.6897 12.6352 13.5001 12.1774 13.5001 11.7C13.5001 11.2226 13.6897 10.7648 14.0273 10.4272C14.3648 10.0897 14.8227 9.90002 15.3001 9.90002ZM20.7001 26.2134C20.2227 26.2134 19.7648 26.0238 19.4273 25.6862C19.0897 25.3486 18.9001 24.8908 18.9001 24.4134C18.9001 23.936 19.0897 23.4782 19.4273 23.1406C19.7648 22.8031 20.2227 22.6134 20.7001 22.6134C21.1774 22.6134 21.6353 22.8031 21.9729 23.1406C22.3104 23.4782 22.5001 23.936 22.5001 24.4134C22.5001 24.8908 22.3104 25.3486 21.9729 25.6862C21.6353 26.0238 21.1774 26.2134 20.7001 26.2134ZM24.6727 13.8726L13.8727 24.6726C13.5332 25.0005 13.0785 25.1819 12.6065 25.1778C12.1346 25.1737 11.6831 24.9844 11.3494 24.6507C11.0156 24.317 10.8263 23.8655 10.8222 23.3935C10.8181 22.9216 10.9996 22.4669 11.3275 22.1274L22.1275 11.3274C22.4669 10.9995 22.9216 10.8181 23.3936 10.8222C23.8655 10.8263 24.317 11.0156 24.6507 11.3493C24.9845 11.6831 25.1738 12.1345 25.1779 12.6065C25.182 13.0784 25.0005 13.5331 24.6727 13.8726Z"/>
</g>
<defs>
<clipPath id="clip0_407_208">
<rect width="36" height="36" fill="white"/>
</clipPath>
</defs>
</svg>
