<svg width="36" height="35" viewBox="0 0 36 35" fill="none" xmlns="http://www.w3.org/2000/svg">
<g clip-path="url(#clip0_400_2241)">
<path d="M13.1832 17.8506C13.0433 17.1381 13.0793 16.4022 13.2882 15.7068C13.4971 15.0114 13.8726 14.3774 14.382 13.86L15.66 12.582C16.175 12.0648 16.8087 11.6816 17.5059 11.4657C18.2031 11.2499 18.9425 11.2079 19.6596 11.3436C19.9833 9.62697 19.7481 7.85177 18.9886 6.27862C18.2291 4.70547 16.9853 3.41725 15.4397 2.60307C13.8942 1.78889 12.1283 1.49164 10.4014 1.75497C8.67443 2.01829 7.0774 2.82831 5.84473 4.06612C4.61206 5.30393 3.80868 6.90431 3.55254 8.63233C3.2964 10.3603 3.60099 12.125 4.42159 13.6671C5.24219 15.2093 6.53557 16.4477 8.11186 17.2007C9.68815 17.9537 11.4643 18.1814 13.1796 17.8506H13.1832ZM14.382 32.94C13.7904 32.3474 13.3759 31.6015 13.1851 30.7861C12.9943 29.9708 13.0348 29.1184 13.302 28.3248C12.5518 27.9531 11.9203 27.3795 11.4783 26.6685C11.0362 25.9574 10.8014 25.1372 10.8 24.3V22.5C10.809 21.5208 11.142 20.5704 11.7468 19.8H9C6.61393 19.8029 4.3264 20.752 2.6392 22.4392C0.951988 24.1264 0.00285814 26.4139 0 28.8L0 32.4C0 32.8774 0.189642 33.3352 0.527208 33.6728C0.864773 34.0104 1.32261 34.2 1.8 34.2H15.6366L14.382 32.94ZM35.1 21.6H33.084C32.881 20.7146 32.5285 19.8704 32.0418 19.1034L33.4818 17.6724C33.6505 17.5036 33.7453 17.2748 33.7453 17.0361C33.7453 16.7975 33.6505 16.5686 33.4818 16.3998L32.2092 15.1272C32.0404 14.9585 31.8115 14.8637 31.5729 14.8637C31.3343 14.8637 31.1054 14.9585 30.9366 15.1272L29.5056 16.5672C28.7365 16.0765 27.889 15.7209 27 15.516V13.5C27 13.2613 26.9052 13.0324 26.7364 12.8636C26.5676 12.6948 26.3387 12.6 26.1 12.6H24.3C24.0613 12.6 23.8324 12.6948 23.6636 12.8636C23.4948 13.0324 23.4 13.2613 23.4 13.5V15.516C22.5144 15.7194 21.672 16.0722 20.9034 16.5582L19.4724 15.1272C19.3036 14.9585 19.0747 14.8637 18.8361 14.8637C18.5975 14.8637 18.3686 14.9585 18.1998 15.1272L16.9272 16.3998C16.7585 16.5686 16.6637 16.7975 16.6637 17.0361C16.6637 17.2748 16.7585 17.5036 16.9272 17.6724L18.3672 19.1124C17.8776 19.8756 17.5212 20.7162 17.316 21.6H15.3C15.0613 21.6 14.8324 21.6948 14.6636 21.8636C14.4948 22.0324 14.4 22.2613 14.4 22.5V24.3C14.4 24.5387 14.4948 24.7676 14.6636 24.9364C14.8324 25.1052 15.0613 25.2 15.3 25.2H17.316C17.5194 26.0856 17.8722 26.928 18.3582 27.6966L16.9272 29.1276C16.7585 29.2964 16.6637 29.5253 16.6637 29.7639C16.6637 30.0026 16.7585 30.2314 16.9272 30.4002L18.1998 31.6728C18.3686 31.8415 18.5975 31.9363 18.8361 31.9363C19.0747 31.9363 19.3036 31.8415 19.4724 31.6728L20.9124 30.2328C21.6756 30.7224 22.518 31.0788 23.4 31.284V33.3C23.4 33.5387 23.4948 33.7676 23.6636 33.9364C23.8324 34.1052 24.0613 34.2 24.3 34.2H26.1C26.3387 34.2 26.5676 34.1052 26.7364 33.9364C26.9052 33.7676 27 33.5387 27 33.3V31.284C27.8856 31.0806 28.728 30.7278 29.4966 30.2418L30.9276 31.6818C31.0964 31.8505 31.3253 31.9453 31.5639 31.9453C31.8025 31.9453 32.0314 31.8505 32.2002 31.6818L33.4728 30.4092C33.6415 30.2404 33.7363 30.0116 33.7363 29.7729C33.7363 29.5343 33.6415 29.3054 33.4728 29.1366L32.0328 27.7056C32.5242 26.937 32.8788 26.0892 33.084 25.2H35.1C35.3387 25.2 35.5676 25.1052 35.7364 24.9364C35.9052 24.7676 36 24.5387 36 24.3V22.5C36 22.2613 35.9052 22.0324 35.7364 21.8636C35.5676 21.6948 35.3387 21.6 35.1 21.6ZM25.2 27.9C24.0065 27.9 22.8619 27.4259 22.018 26.582C21.1741 25.7381 20.7 24.5935 20.7 23.4C20.7 22.2065 21.1741 21.0619 22.018 20.218C22.8619 19.3741 24.0065 18.9 25.2 18.9C26.3935 18.9 27.5381 19.3741 28.382 20.218C29.2259 21.0619 29.7 22.2065 29.7 23.4C29.7 24.5935 29.2259 25.7381 28.382 26.582C27.5381 27.4259 26.3935 27.9 25.2 27.9Z" fill="#8B949E"/>
</g>
<defs>
<clipPath id="clip0_400_2241">
<rect width="36" height="34.2" fill="white"/>
</clipPath>
</defs>
</svg>
