<svg width="57" height="36" viewBox="0 0 57 36" fill="none" xmlns="http://www.w3.org/2000/svg">
<g id="BRGD Logo" clip-path="url(#clip0_192_43)">
<path id="Vector" d="M38.7688 18.0009H37.3844V19.3853H38.7688V18.0009Z" fill="#30363D"/>
<path id="Vector_2" d="M38.7688 16.6147H37.3844V17.9991H38.7688V16.6147Z" fill="#30363D"/>
<path id="Vector_3" d="M38.7688 15.2303H37.3844V16.6147H38.7688V15.2303Z" fill="#30363D"/>
<path id="Vector_4" d="M37.3844 16.6147H36V17.9991H37.3844V16.6147Z" fill="#30363D"/>
<path id="Vector_5" d="M37.3844 15.2303H36V16.6147H37.3844V15.2303Z" fill="#30363D"/>
<path id="Vector_6" d="M36 16.6147H34.6156V17.9991H36V16.6147Z" fill="#30363D"/>
<path id="Vector_7" d="M36 15.2303H34.6156V16.6147H36V15.2303Z" fill="#30363D"/>
<path id="Vector_8" d="M34.6156 16.6147H33.2312V17.9991H34.6156V16.6147Z" fill="#30363D"/>
<path id="Vector_9" d="M34.6156 15.2303H33.2312V16.6147H34.6156V15.2303Z" fill="#30363D"/>
<path id="Vector_10" d="M33.2312 16.6147H31.8468V17.9991H33.2312V16.6147Z" fill="#30363D"/>
<path id="Vector_11" d="M33.2312 15.2303H31.8468V16.6147H33.2312V15.2303Z" fill="#30363D"/>
<path id="Vector_12" d="M31.8468 15.2303H30.4624V16.6147H31.8468V15.2303Z" fill="#30363D"/>
<path id="Vector_13" d="M31.8468 13.8459H30.4624V15.2303H31.8468V13.8459Z" fill="#30363D"/>
<path id="Vector_14" d="M33.2312 13.8459H31.8468V15.2303H33.2312V13.8459Z" fill="#30363D"/>
<path id="Vector_15" d="M30.4624 13.8459H29.078V15.2303H30.4624V13.8459Z" fill="#30363D"/>
<path id="Vector_16" d="M30.4624 12.4615H29.078V13.8459H30.4624V12.4615Z" fill="#30363D"/>
<path id="Vector_17" d="M31.8468 12.4615H30.4624V13.8459H31.8468V12.4615Z" fill="#30363D"/>
<path id="Vector_18" d="M31.8468 11.0771H30.4624V12.4615H31.8468V11.0771Z" fill="#30363D"/>
<path id="Vector_19" d="M30.4624 11.0771H29.078V12.4615H30.4624V11.0771Z" fill="#30363D"/>
<path id="Vector_20" d="M30.4624 9.69269H29.078V11.0771H30.4624V9.69269Z" fill="#30363D"/>
<path id="Vector_21" d="M31.8468 9.69269H30.4624V11.0771H31.8468V9.69269Z" fill="#30363D"/>
<path id="Vector_22" d="M31.8468 8.30829H30.4624V9.69269H31.8468V8.30829Z" fill="#30363D"/>
<path id="Vector_23" d="M30.4624 8.30829H29.078V9.69269H30.4624V8.30829Z" fill="#30363D"/>
<path id="Vector_24" d="M31.8468 6.92383H30.4624V8.30823H31.8468V6.92383Z" fill="#30363D"/>
<path id="Vector_25" d="M33.2312 6.92383H31.8468V8.30823H33.2312V6.92383Z" fill="#30363D"/>
<path id="Vector_26" d="M33.2312 5.5376H31.8468V6.922H33.2312V5.5376Z" fill="#30363D"/>
<path id="Vector_27" d="M31.8468 5.5376H30.4624V6.922H31.8468V5.5376Z" fill="#30363D"/>
<path id="Vector_28" d="M31.8468 4.1532H30.4624V5.5376H31.8468V4.1532Z" fill="#30363D"/>
<path id="Vector_29" d="M33.2312 4.1532H31.8468V5.5376H33.2312V4.1532Z" fill="#30363D"/>
<path id="Vector_30" d="M34.6156 2.7688H33.2312V4.1532H34.6156V2.7688Z" fill="#30363D"/>
<path id="Vector_31" d="M33.2312 2.7688H31.8468V4.1532H33.2312V2.7688Z" fill="#30363D"/>
<path id="Vector_32" d="M34.6156 4.1532H33.2312V5.5376H34.6156V4.1532Z" fill="#30363D"/>
<path id="Vector_33" d="M34.6156 1.3844H33.2312V2.7688H34.6156V1.3844Z" fill="#30363D"/>
<path id="Vector_34" d="M33.2312 1.3844H31.8468V2.7688H33.2312V1.3844Z" fill="#30363D"/>
<path id="Vector_35" d="M36 1.3844H34.6156V2.7688H36V1.3844Z" fill="#30363D"/>
<path id="Vector_36" d="M36 0H34.6156V1.3844H36V0Z" fill="#30363D"/>
<path id="Vector_37" d="M34.6156 0H33.2312V1.3844H34.6156V0Z" fill="#30363D"/>
<path id="Vector_38" d="M37.3844 0H36V1.3844H37.3844V0Z" fill="#30363D"/>
<path id="Vector_39" d="M38.7688 0H37.3844V1.3844H38.7688V0Z" fill="#30363D"/>
<path id="Vector_40" d="M40.1532 0H38.7688V1.3844H40.1532V0Z" fill="#30363D"/>
<path id="Vector_41" d="M40.1532 1.3844H38.7688V2.7688H40.1532V1.3844Z" fill="#30363D"/>
<path id="Vector_42" d="M41.5395 1.3844H40.1551V2.7688H41.5395V1.3844Z" fill="#30363D"/>
<path id="Vector_43" d="M42.9239 2.7688H41.5395V4.1532H42.9239V2.7688Z" fill="#30363D"/>
<path id="Vector_44" d="M41.5395 2.7688H40.1551V4.1532H41.5395V2.7688Z" fill="#30363D"/>
<path id="Vector_45" d="M44.3083 2.7688H42.9239V4.1532H44.3083V2.7688Z" fill="#30363D"/>
<path id="Vector_46" d="M47.0771 8.30829H45.6927V9.69269H47.0771V8.30829Z" fill="#30363D"/>
<path id="Vector_47" d="M45.6927 8.30829H44.3083V9.69269H45.6927V8.30829Z" fill="#30363D"/>
<path id="Vector_48" d="M45.6927 6.92383H44.3083V8.30823H45.6927V6.92383Z" fill="#30363D"/>
<path id="Vector_49" d="M47.0771 6.92383H45.6927V8.30823H47.0771V6.92383Z" fill="#30363D"/>
<path id="Vector_50" d="M47.0771 5.5376H45.6927V6.922H47.0771V5.5376Z" fill="#30363D"/>
<path id="Vector_51" d="M45.6927 5.5376H44.3083V6.922H45.6927V5.5376Z" fill="#30363D"/>
<path id="Vector_52" d="M45.6927 4.1532H44.3083V5.5376H45.6927V4.1532Z" fill="#30363D"/>
<path id="Vector_53" d="M47.0771 4.1532H45.6927V5.5376H47.0771V4.1532Z" fill="#30363D"/>
<path id="Vector_54" d="M47.0771 2.7688H45.6927V4.1532H47.0771V2.7688Z" fill="#30363D"/>
<path id="Vector_55" d="M45.6927 2.7688H44.3083V4.1532H45.6927V2.7688Z" fill="#30363D"/>
<path id="Vector_56" d="M47.0771 9.69269H45.6927V11.0771H47.0771V9.69269Z" fill="#30363D"/>
<path id="Vector_57" d="M45.6927 9.69269H44.3083V11.0771H45.6927V9.69269Z" fill="#30363D"/>
<path id="Vector_58" d="M45.6927 1.3844H44.3083V2.7688H45.6927V1.3844Z" fill="#30363D"/>
<path id="Vector_59" d="M44.3083 1.3844H42.9239V2.7688H44.3083V1.3844Z" fill="#30363D"/>
<path id="Vector_60" d="M47.0771 1.3844H45.6927V2.7688H47.0771V1.3844Z" fill="#30363D"/>
<path id="Vector_61" d="M49.8459 1.3844H48.4615V2.7688H49.8459V1.3844Z" fill="#30363D"/>
<path id="Vector_62" d="M48.4615 1.3844H47.0771V2.7688H48.4615V1.3844Z" fill="#30363D"/>
<path id="Vector_63" d="M52.6165 1.3844H51.2321V2.7688H52.6165V1.3844Z" fill="#30363D"/>
<path id="Vector_64" d="M51.2303 1.3844H49.8459V2.7688H51.2303V1.3844Z" fill="#30363D"/>
<path id="Vector_65" d="M47.0771 0H45.6927V1.3844H47.0771V0Z" fill="#30363D"/>
<path id="Vector_66" d="M49.8459 0H48.4615V1.3844H49.8459V0Z" fill="#30363D"/>
<path id="Vector_67" d="M48.4615 0H47.0771V1.3844H48.4615V0Z" fill="#30363D"/>
<path id="Vector_68" d="M49.8459 2.7688H48.4615V4.1532H49.8459V2.7688Z" fill="#30363D"/>
<path id="Vector_69" d="M48.4615 2.7688H47.0771V4.1532H48.4615V2.7688Z" fill="#30363D"/>
<path id="Vector_70" d="M51.2303 2.7688H49.8459V4.1532H51.2303V2.7688Z" fill="#30363D"/>
<path id="Vector_71" d="M54.0009 2.7688H52.6165V4.1532H54.0009V2.7688Z" fill="#30363D"/>
<path id="Vector_72" d="M52.6165 2.7688H51.2321V4.1532H52.6165V2.7688Z" fill="#30363D"/>
<path id="Vector_73" d="M41.5395 9.69269H40.1551V11.0771H41.5395V9.69269Z" fill="#30363D"/>
<path id="Vector_74" d="M40.1532 9.69269H38.7688V11.0771H40.1532V9.69269Z" fill="#30363D"/>
<path id="Vector_75" d="M38.7688 9.69269H37.3844V11.0771H38.7688V9.69269Z" fill="#30363D"/>
<path id="Vector_76" d="M37.3844 9.69269H36V11.0771H37.3844V9.69269Z" fill="#30363D"/>
<path id="Vector_77" d="M40.1532 16.6147H38.7688V17.9991H40.1532V16.6147Z" fill="#30363D"/>
<path id="Vector_78" d="M40.1532 15.2303H38.7688V16.6147H40.1532V15.2303Z" fill="#30363D"/>
<path id="Vector_79" d="M40.1532 13.8459H38.7688V15.2303H40.1532V13.8459Z" fill="#30363D"/>
<path id="Vector_80" d="M40.1532 12.4615H38.7688V13.8459H40.1532V12.4615Z" fill="#30363D"/>
<path id="Vector_81" d="M41.5395 12.4615H40.1551V13.8459H41.5395V12.4615Z" fill="#30363D"/>
<path id="Vector_82" d="M41.5395 11.0771H40.1551V12.4615H41.5395V11.0771Z" fill="#30363D"/>
<path id="Vector_83" d="M42.9239 8.30829H41.5395V9.69269H42.9239V8.30829Z" fill="#30363D"/>
<path id="Vector_84" d="M41.5395 8.30829H40.1551V9.69269H41.5395V8.30829Z" fill="#30363D"/>
<path id="Vector_85" d="M40.1532 8.30829H38.7688V9.69269H40.1532V8.30829Z" fill="#30363D"/>
<path id="Vector_86" d="M38.7688 8.30829H37.3844V9.69269H38.7688V8.30829Z" fill="#30363D"/>
<path id="Vector_87" d="M45.6927 13.8459H44.3083V15.2303H45.6927V13.8459Z" fill="#30363D"/>
<path id="Vector_88" d="M44.3083 13.8459H42.9239V15.2303H44.3083V13.8459Z" fill="#30363D"/>
<path id="Vector_89" d="M44.3083 12.4615H42.9239V13.8459H44.3083V12.4615Z" fill="#30363D"/>
<path id="Vector_90" d="M45.6927 12.4615H44.3083V13.8459H45.6927V12.4615Z" fill="#30363D"/>
<path id="Vector_91" d="M45.6927 11.0771H44.3083V12.4615H45.6927V11.0771Z" fill="#30363D"/>
<path id="Vector_92" d="M44.3083 11.0771H42.9239V12.4615H44.3083V11.0771Z" fill="#30363D"/>
<path id="Vector_93" d="M45.6927 15.2303H44.3083V16.6147H45.6927V15.2303Z" fill="#30363D"/>
<path id="Vector_94" d="M44.3083 15.2303H42.9239V16.6147H44.3083V15.2303Z" fill="#30363D"/>
<path id="Vector_95" d="M47.0771 16.6147H45.6927V17.9991H47.0771V16.6147Z" fill="#30363D"/>
<path id="Vector_96" d="M45.6927 16.6147H44.3083V17.9991H45.6927V16.6147Z" fill="#30363D"/>
<path id="Vector_97" d="M44.3083 16.6147H42.9239V17.9991H44.3083V16.6147Z" fill="#30363D"/>
<path id="Vector_98" d="M42.9239 16.6147H41.5395V17.9991H42.9239V16.6147Z" fill="#30363D"/>
<path id="Vector_99" d="M47.0771 15.2303H45.6927V16.6147H47.0771V15.2303Z" fill="#30363D"/>
<path id="Vector_100" d="M51.2303 16.6147H49.8459V17.9991H51.2303V16.6147Z" fill="#30363D"/>
<path id="Vector_101" d="M49.8459 16.6147H48.4615V17.9991H49.8459V16.6147Z" fill="#30363D"/>
<path id="Vector_102" d="M48.4615 16.6147H47.0771V17.9991H48.4615V16.6147Z" fill="#30363D"/>
<path id="Vector_103" d="M52.6165 15.2303H51.2321V16.6147H52.6165V15.2303Z" fill="#30363D"/>
<path id="Vector_104" d="M51.2303 15.2303H49.8459V16.6147H51.2303V15.2303Z" fill="#30363D"/>
<path id="Vector_105" d="M49.8459 15.2303H48.4615V16.6147H49.8459V15.2303Z" fill="#30363D"/>
<path id="Vector_106" d="M48.4615 15.2303H47.0771V16.6147H48.4615V15.2303Z" fill="#30363D"/>
<path id="Vector_107" d="M54.0009 15.2303H52.6165V16.6147H54.0009V15.2303Z" fill="#30363D"/>
<path id="Vector_108" d="M55.3853 13.8459H54.0009V15.2303H55.3853V13.8459Z" fill="#30363D"/>
<path id="Vector_109" d="M54.0009 13.8459H52.6165V15.2303H54.0009V13.8459Z" fill="#30363D"/>
<path id="Vector_110" d="M52.6165 13.8459H51.2321V15.2303H52.6165V13.8459Z" fill="#30363D"/>
<path id="Vector_111" d="M56.7697 11.0771H55.3853V12.4615H56.7697V11.0771Z" fill="#30363D"/>
<path id="Vector_112" d="M55.3853 11.0771H54.0009V12.4615H55.3853V11.0771Z" fill="#30363D"/>
<path id="Vector_113" d="M55.3853 9.69269H54.0009V11.0771H55.3853V9.69269Z" fill="#30363D"/>
<path id="Vector_114" d="M56.7697 9.69269H55.3853V11.0771H56.7697V9.69269Z" fill="#30363D"/>
<path id="Vector_115" d="M56.7697 8.30829H55.3853V9.69269H56.7697V8.30829Z" fill="#30363D"/>
<path id="Vector_116" d="M55.3853 8.30829H54.0009V9.69269H55.3853V8.30829Z" fill="#30363D"/>
<path id="Vector_117" d="M55.3853 6.92383H54.0009V8.30823H55.3853V6.92383Z" fill="#30363D"/>
<path id="Vector_118" d="M56.7697 6.92383H55.3853V8.30823H56.7697V6.92383Z" fill="#30363D"/>
<path id="Vector_119" d="M56.7697 5.5376H55.3853V6.922H56.7697V5.5376Z" fill="#30363D"/>
<path id="Vector_120" d="M55.3853 5.5376H54.0009V6.922H55.3853V5.5376Z" fill="#30363D"/>
<path id="Vector_121" d="M56.7697 12.4615H55.3853V13.8459H56.7697V12.4615Z" fill="#30363D"/>
<path id="Vector_122" d="M55.3853 12.4615H54.0009V13.8459H55.3853V12.4615Z" fill="#30363D"/>
<path id="Vector_123" d="M55.3853 4.1532H54.0009V5.5376H55.3853V4.1532Z" fill="#30363D"/>
<path id="Vector_124" d="M54.0009 4.1532H52.6165V5.5376H54.0009V4.1532Z" fill="#30363D"/>
<path id="Vector_125" d="M27.6917 6.92383H26.3073V8.30823H27.6917V6.92383Z" fill="#30363D"/>
<path id="Vector_126" d="M26.3073 6.92383H24.9229V8.30823H26.3073V6.92383Z" fill="#30363D"/>
<path id="Vector_127" d="M29.0761 6.92383H27.6917V8.30823H29.0761V6.92383Z" fill="#30363D"/>
<path id="Vector_128" d="M27.6917 5.5376H26.3073V6.922H27.6917V5.5376Z" fill="#30363D"/>
<path id="Vector_129" d="M29.0761 5.5376H27.6917V6.922H29.0761V5.5376Z" fill="#30363D"/>
<path id="Vector_130" d="M29.0761 4.1532H27.6917V5.5376H29.0761V4.1532Z" fill="#30363D"/>
<path id="Vector_131" d="M27.6917 4.1532H26.3073V5.5376H27.6917V4.1532Z" fill="#30363D"/>
<path id="Vector_132" d="M27.6917 2.7688H26.3073V4.1532H27.6917V2.7688Z" fill="#30363D"/>
<path id="Vector_133" d="M29.0761 2.7688H27.6917V4.1532H29.0761V2.7688Z" fill="#30363D"/>
<path id="Vector_134" d="M27.6917 1.3844H26.3073V2.7688H27.6917V1.3844Z" fill="#30363D"/>
<path id="Vector_135" d="M29.0761 1.3844H27.6917V2.7688H29.0761V1.3844Z" fill="#30363D"/>
<path id="Vector_136" d="M26.3073 1.3844H24.9229V2.7688H26.3073V1.3844Z" fill="#30363D"/>
<path id="Vector_137" d="M27.6917 0H26.3073V1.3844H27.6917V0Z" fill="#30363D"/>
<path id="Vector_138" d="M24.9229 0H23.5385V1.3844H24.9229V0Z" fill="#30363D"/>
<path id="Vector_139" d="M26.3073 0H24.9229V1.3844H26.3073V0Z" fill="#30363D"/>
<path id="Vector_140" d="M22.1541 0H20.7697V1.3844H22.1541V0Z" fill="#30363D"/>
<path id="Vector_141" d="M23.5385 0H22.1541V1.3844H23.5385V0Z" fill="#30363D"/>
<path id="Vector_142" d="M20.7697 0H19.3853V1.3844H20.7697V0Z" fill="#30363D"/>
<path id="Vector_143" d="M19.3853 0H18.0009V1.3844H19.3853V0Z" fill="#30363D"/>
<path id="Vector_144" d="M27.6917 8.30829H26.3073V9.69269H27.6917V8.30829Z" fill="#30363D"/>
<path id="Vector_145" d="M17.9991 0H16.6147V1.3844H17.9991V0Z" fill="#30363D"/>
<path id="Vector_146" d="M20.7697 4.1532H19.3853V5.5376H20.7697V4.1532Z" fill="#30363D"/>
<path id="Vector_147" d="M22.1541 4.1532H20.7697V5.5376H22.1541V4.1532Z" fill="#30363D"/>
<path id="Vector_148" d="M22.1541 2.7688H20.7697V4.1532H22.1541V2.7688Z" fill="#30363D"/>
<path id="Vector_149" d="M20.7697 2.7688H19.3853V4.1532H20.7697V2.7688Z" fill="#30363D"/>
<path id="Vector_150" d="M20.7697 1.3844H19.3853V2.7688H20.7697V1.3844Z" fill="#30363D"/>
<path id="Vector_151" d="M22.1541 1.3844H20.7697V2.7688H22.1541V1.3844Z" fill="#30363D"/>
<path id="Vector_152" d="M20.7697 8.30829H19.3853V9.69269H20.7697V8.30829Z" fill="#30363D"/>
<path id="Vector_153" d="M22.1541 8.30829H20.7697V9.69269H22.1541V8.30829Z" fill="#30363D"/>
<path id="Vector_154" d="M22.1541 6.92383H20.7697V8.30823H22.1541V6.92383Z" fill="#30363D"/>
<path id="Vector_155" d="M20.7697 6.92383H19.3853V8.30823H20.7697V6.92383Z" fill="#30363D"/>
<path id="Vector_156" d="M20.7697 5.5376H19.3853V6.922H20.7697V5.5376Z" fill="#30363D"/>
<path id="Vector_157" d="M22.1541 5.5376H20.7697V6.922H22.1541V5.5376Z" fill="#30363D"/>
<path id="Vector_158" d="M24.9229 8.30829H23.5385V9.69269H24.9229V8.30829Z" fill="#30363D"/>
<path id="Vector_159" d="M23.5385 8.30829H22.1541V9.69269H23.5385V8.30829Z" fill="#30363D"/>
<path id="Vector_160" d="M26.3073 8.30829H24.9229V9.69269H26.3073V8.30829Z" fill="#30363D"/>
<path id="Vector_161" d="M24.9229 9.69269H23.5385V11.0771H24.9229V9.69269Z" fill="#30363D"/>
<path id="Vector_162" d="M23.5385 9.69269H22.1541V11.0771H23.5385V9.69269Z" fill="#30363D"/>
<path id="Vector_163" d="M19.3853 6.92383H18.0009V8.30823H19.3853V6.92383Z" fill="#30363D"/>
<path id="Vector_164" d="M19.3853 9.69269H18.0009V11.0771H19.3853V9.69269Z" fill="#30363D"/>
<path id="Vector_165" d="M19.3853 8.30829H18.0009V9.69269H19.3853V8.30829Z" fill="#30363D"/>
<path id="Vector_166" d="M20.7697 9.69269H19.3853V11.0771H20.7697V9.69269Z" fill="#30363D"/>
<path id="Vector_167" d="M19.3853 12.4615H18.0009V13.8459H19.3853V12.4615Z" fill="#30363D"/>
<path id="Vector_168" d="M19.3853 11.0771H18.0009V12.4615H19.3853V11.0771Z" fill="#30363D"/>
<path id="Vector_169" d="M17.9991 11.0771H16.6147V12.4615H17.9991V11.0771Z" fill="#30363D"/>
<path id="Vector_170" d="M17.9991 13.8459H16.6147V15.2303H17.9991V13.8459Z" fill="#30363D"/>
<path id="Vector_171" d="M17.9991 12.4615H16.6147V13.8459H17.9991V12.4615Z" fill="#30363D"/>
<path id="Vector_172" d="M19.3853 13.8459H18.0009V15.2303H19.3853V13.8459Z" fill="#30363D"/>
<path id="Vector_173" d="M26.3073 12.4615H24.9229V13.8459H26.3073V12.4615Z" fill="#30363D"/>
<path id="Vector_174" d="M26.3073 11.0771H24.9229V12.4615H26.3073V11.0771Z" fill="#30363D"/>
<path id="Vector_175" d="M24.9229 11.0771H23.5385V12.4615H24.9229V11.0771Z" fill="#30363D"/>
<path id="Vector_176" d="M24.9229 13.8459H23.5385V15.2303H24.9229V13.8459Z" fill="#30363D"/>
<path id="Vector_177" d="M24.9229 12.4615H23.5385V13.8459H24.9229V12.4615Z" fill="#30363D"/>
<path id="Vector_178" d="M26.3073 13.8459H24.9229V15.2303H26.3073V13.8459Z" fill="#30363D"/>
<path id="Vector_179" d="M27.6917 15.2303H26.3073V16.6147H27.6917V15.2303Z" fill="#30363D"/>
<path id="Vector_180" d="M27.6917 13.8459H26.3073V15.2303H27.6917V13.8459Z" fill="#30363D"/>
<path id="Vector_181" d="M29.0761 16.6147H27.6917V17.9991H29.0761V16.6147Z" fill="#30363D"/>
<path id="Vector_182" d="M26.3073 16.6147H24.9229V17.9991H26.3073V16.6147Z" fill="#30363D"/>
<path id="Vector_183" d="M26.3073 15.2303H24.9229V16.6147H26.3073V15.2303Z" fill="#30363D"/>
<path id="Vector_184" d="M27.6917 16.6147H26.3073V17.9991H27.6917V16.6147Z" fill="#30363D"/>
<path id="Vector_185" d="M17.9991 16.6147H16.6147V17.9991H17.9991V16.6147Z" fill="#30363D"/>
<path id="Vector_186" d="M17.9991 15.2303H16.6147V16.6147H17.9991V15.2303Z" fill="#30363D"/>
<path id="Vector_187" d="M16.6147 15.2303H15.2303V16.6147H16.6147V15.2303Z" fill="#30363D"/>
<path id="Vector_188" d="M15.2303 16.6147H13.8459V17.9991H15.2303V16.6147Z" fill="#30363D"/>
<path id="Vector_189" d="M16.6147 16.6147H15.2303V17.9991H16.6147V16.6147Z" fill="#30363D"/>
<path id="Vector_190" d="M19.3853 16.6147H18.0009V17.9991H19.3853V16.6147Z" fill="#30363D"/>
<path id="Vector_191" d="M15.2303 12.4615H13.8459V13.8459H15.2303V12.4615Z" fill="#30363D"/>
<path id="Vector_192" d="M15.2303 11.0771H13.8459V12.4615H15.2303V11.0771Z" fill="#30363D"/>
<path id="Vector_193" d="M13.8459 11.0771H12.4615V12.4615H13.8459V11.0771Z" fill="#30363D"/>
<path id="Vector_194" d="M13.8459 13.8459H12.4615V15.2303H13.8459V13.8459Z" fill="#30363D"/>
<path id="Vector_195" d="M13.8459 12.4615H12.4615V13.8459H13.8459V12.4615Z" fill="#30363D"/>
<path id="Vector_196" d="M15.2303 13.8459H13.8459V15.2303H15.2303V13.8459Z" fill="#30363D"/>
<path id="Vector_197" d="M15.2303 8.30829H13.8459V9.69269H15.2303V8.30829Z" fill="#30363D"/>
<path id="Vector_198" d="M15.2303 6.92383H13.8459V8.30823H15.2303V6.92383Z" fill="#30363D"/>
<path id="Vector_199" d="M13.8459 6.92383H12.4615V8.30823H13.8459V6.92383Z" fill="#30363D"/>
<path id="Vector_200" d="M13.8459 9.69269H12.4615V11.0771H13.8459V9.69269Z" fill="#30363D"/>
<path id="Vector_201" d="M13.8459 8.30829H12.4615V9.69269H13.8459V8.30829Z" fill="#30363D"/>
<path id="Vector_202" d="M20.7697 16.6147H19.3853V17.9991H20.7697V16.6147Z" fill="#30363D"/>
<path id="Vector_203" d="M16.6147 4.1532H15.2303V5.5376H16.6147V4.1532Z" fill="#30363D"/>
<path id="Vector_204" d="M16.6147 2.7688H15.2303V4.1532H16.6147V2.7688Z" fill="#30363D"/>
<path id="Vector_205" d="M15.2303 2.7688H13.8459V4.1532H15.2303V2.7688Z" fill="#30363D"/>
<path id="Vector_206" d="M15.2303 5.5376H13.8459V6.922H15.2303V5.5376Z" fill="#30363D"/>
<path id="Vector_207" d="M15.2303 4.1532H13.8459V5.5376H15.2303V4.1532Z" fill="#30363D"/>
<path id="Vector_208" d="M16.6147 5.5376H15.2303V6.922H16.6147V5.5376Z" fill="#30363D"/>
<path id="Vector_209" d="M15.2303 0H13.8459V1.3844H15.2303V0Z" fill="#30363D"/>
<path id="Vector_210" d="M16.6147 1.3844H15.2303V2.7688H16.6147V1.3844Z" fill="#30363D"/>
<path id="Vector_211" d="M17.9991 4.1532H16.6147V5.5376H17.9991V4.1532Z" fill="#30363D"/>
<path id="Vector_212" d="M13.8459 1.3844H12.4615V2.7688H13.8459V1.3844Z" fill="#30363D"/>
<path id="Vector_213" d="M13.8459 0H12.4615V1.3844H13.8459V0Z" fill="#30363D"/>
<path id="Vector_214" d="M15.2303 1.3844H13.8459V2.7688H15.2303V1.3844Z" fill="#30363D"/>
<path id="Vector_215" d="M16.6147 6.92383H15.2303V8.30823H16.6147V6.92383Z" fill="#30363D"/>
<path id="Vector_216" d="M12.4615 0H11.0771V1.3844H12.4615V0Z" fill="#30363D"/>
<path id="Vector_217" d="M11.0771 0H9.69267V1.3844H11.0771V0Z" fill="#30363D"/>
<path id="Vector_218" d="M6.92202 0H5.53761V1.3844H6.92202V0Z" fill="#30363D"/>
<path id="Vector_219" d="M8.30826 0H6.92386V1.3844H8.30826V0Z" fill="#30363D"/>
<path id="Vector_220" d="M9.69266 0H8.30826V1.3844H9.69266V0Z" fill="#30363D"/>
<path id="Vector_221" d="M9.69266 2.7688H8.30826V4.1532H9.69266V2.7688Z" fill="#30363D"/>
<path id="Vector_222" d="M9.69266 1.3844H8.30826V2.7688H9.69266V1.3844Z" fill="#30363D"/>
<path id="Vector_223" d="M8.30826 1.3844H6.92386V2.7688H8.30826V1.3844Z" fill="#30363D"/>
<path id="Vector_224" d="M8.30826 4.1532H6.92386V5.5376H8.30826V4.1532Z" fill="#30363D"/>
<path id="Vector_225" d="M8.30826 2.7688H6.92386V4.1532H8.30826V2.7688Z" fill="#30363D"/>
<path id="Vector_226" d="M9.69266 4.1532H8.30826V5.5376H9.69266V4.1532Z" fill="#30363D"/>
<path id="Vector_227" d="M9.69266 6.92383H8.30826V8.30823H9.69266V6.92383Z" fill="#30363D"/>
<path id="Vector_228" d="M9.69266 5.5376H8.30826V6.922H9.69266V5.5376Z" fill="#30363D"/>
<path id="Vector_229" d="M8.30826 5.5376H6.92386V6.922H8.30826V5.5376Z" fill="#30363D"/>
<path id="Vector_230" d="M8.30826 8.30829H6.92386V9.69269H8.30826V8.30829Z" fill="#30363D"/>
<path id="Vector_231" d="M8.30826 6.92383H6.92386V8.30823H8.30826V6.92383Z" fill="#30363D"/>
<path id="Vector_232" d="M9.69266 8.30829H8.30826V9.69269H9.69266V8.30829Z" fill="#30363D"/>
<path id="Vector_233" d="M12.4615 9.72217H11.0771V11.1066H12.4615V9.72217Z" fill="#30363D"/>
<path id="Vector_234" d="M12.4615 8.33594H11.0771V9.72034H12.4615V8.33594Z" fill="#30363D"/>
<path id="Vector_235" d="M11.0771 8.33594H9.69267V9.72034H11.0771V8.33594Z" fill="#30363D"/>
<path id="Vector_236" d="M5.53761 0H4.15321V1.3844H5.53761V0Z" fill="#30363D"/>
<path id="Vector_237" d="M11.0771 9.72217H9.69267V11.1066H11.0771V9.72217Z" fill="#30363D"/>
<path id="Vector_238" d="M6.92202 6.92383H5.53761V8.30823H6.92202V6.92383Z" fill="#30363D"/>
<path id="Vector_239" d="M4.15321 2.7688H2.76881V4.1532H4.15321V2.7688Z" fill="#30363D"/>
<path id="Vector_240" d="M4.15321 1.3844H2.76881V2.7688H4.15321V1.3844Z" fill="#30363D"/>
<path id="Vector_241" d="M1.3844 4.1532H0V5.5376H1.3844V4.1532Z" fill="#30363D"/>
<path id="Vector_242" d="M2.76881 4.1532H1.3844V5.5376H2.76881V4.1532Z" fill="#30363D"/>
<path id="Vector_243" d="M2.76881 2.7688H1.3844V4.1532H2.76881V2.7688Z" fill="#30363D"/>
<path id="Vector_244" d="M4.15321 4.1532H2.76881V5.5376H4.15321V4.1532Z" fill="#30363D"/>
<path id="Vector_245" d="M6.92202 11.0771H5.53761V12.4615H6.92202V11.0771Z" fill="#30363D"/>
<path id="Vector_246" d="M5.53761 11.0771H4.15321V12.4615H5.53761V11.0771Z" fill="#30363D"/>
<path id="Vector_247" d="M5.53761 4.1532H4.15321V5.5376H5.53761V4.1532Z" fill="#30363D"/>
<path id="Vector_248" d="M6.92202 9.69269H5.53761V11.0771H6.92202V9.69269Z" fill="#30363D"/>
<path id="Vector_249" d="M6.92202 8.30829H5.53761V9.69269H6.92202V8.30829Z" fill="#30363D"/>
<path id="Vector_250" d="M8.30826 9.69269H6.92386V11.0771H8.30826V9.69269Z" fill="#30363D"/>
<path id="Vector_251" d="M6.92202 13.8459H5.53761V15.2303H6.92202V13.8459Z" fill="#30363D"/>
<path id="Vector_252" d="M6.92202 12.4615H5.53761V13.8459H6.92202V12.4615Z" fill="#30363D"/>
<path id="Vector_253" d="M5.53761 12.4615H4.15321V13.8459H5.53761V12.4615Z" fill="#30363D"/>
<path id="Vector_254" d="M5.53761 15.2303H4.15321V16.6147H5.53761V15.2303Z" fill="#30363D"/>
<path id="Vector_255" d="M5.53761 13.8459H4.15321V15.2303H5.53761V13.8459Z" fill="#30363D"/>
<path id="Vector_256" d="M4.15321 15.2303H2.76881V16.6147H4.15321V15.2303Z" fill="#30363D"/>
<path id="Vector_257" d="M11.0771 18.0009V16.6165H9.69266V18.0009H11.0771Z" fill="#30363D"/>
<path id="Vector_258" d="M12.4633 17.9991V16.6147H11.0789V17.9991H12.4633Z" fill="#30363D"/>
<path id="Vector_259" d="M12.4615 16.6147V15.2303H11.0771V16.6147H12.4615Z" fill="#30363D"/>
<path id="Vector_260" d="M9.69266 16.6165V15.2321H8.30826V16.6165H9.69266Z" fill="#30363D"/>
<path id="Vector_261" d="M11.0771 16.6147V15.2303H9.69266V16.6147H11.0771Z" fill="#30363D"/>
<path id="Vector_262" d="M9.69267 18.0009V16.6165H8.30826V18.0009H9.69267Z" fill="#30363D"/>
<path id="Vector_263" d="M13.8477 16.6147V15.2303H12.4633V16.6147H13.8477Z" fill="#30363D"/>
<path id="Vector_264" d="M6.92386 17.9991V16.6147H5.53946V17.9991H6.92386Z" fill="#30363D"/>
<path id="Vector_265" d="M8.30826 18.0009V16.6165H6.92386V18.0009H8.30826Z" fill="#30363D"/>
<path id="Vector_266" d="M5.53946 17.9991V16.6147H4.15505V17.9991H5.53946Z" fill="#30363D"/>
<path id="Vector_267" d="M2.77065 17.9991V16.6147H1.38625V17.9991H2.77065Z" fill="#30363D"/>
<path id="Vector_268" d="M4.15505 17.9991V16.6147H2.77065V17.9991H4.15505Z" fill="#30363D"/>
<path id="Vector_269" d="M1.38625 17.9991V16.6147H0.00184262V17.9991H1.38625Z" fill="#30363D"/>
<path id="Vector_270" d="M45.6927 20.7697H44.3083V22.1541H45.6927V20.7697Z" fill="#30363D"/>
<path id="Vector_271" d="M44.3083 20.7697H42.9239V22.1541H44.3083V20.7697Z" fill="#30363D"/>
<path id="Vector_272" d="M42.9239 20.7697H41.5395V22.1541H42.9239V20.7697Z" fill="#30363D"/>
<path id="Vector_273" d="M41.5395 20.7697H40.1551V22.1541H41.5395V20.7697Z" fill="#30363D"/>
<path id="Vector_274" d="M49.8459 22.1541H48.4615V23.5385H49.8459V22.1541Z" fill="#30363D"/>
<path id="Vector_275" d="M48.4615 20.7697H47.0771V22.1541H48.4615V20.7697Z" fill="#30363D"/>
<path id="Vector_276" d="M47.0771 20.7697H45.6927V22.1541H47.0771V20.7697Z" fill="#30363D"/>
<path id="Vector_277" d="M51.2303 22.1541H49.8459V23.5385H51.2303V22.1541Z" fill="#30363D"/>
<path id="Vector_278" d="M49.8459 23.5385H48.4615V24.9229H49.8459V23.5385Z" fill="#30363D"/>
<path id="Vector_279" d="M51.2303 23.5385H49.8459V24.9229H51.2303V23.5385Z" fill="#30363D"/>
<path id="Vector_280" d="M48.4615 24.9229H47.0771V26.3073H48.4615V24.9229Z" fill="#30363D"/>
<path id="Vector_281" d="M49.8459 24.9229H48.4615V26.3073H49.8459V24.9229Z" fill="#30363D"/>
<path id="Vector_282" d="M51.2303 24.9229H49.8459V26.3073H51.2303V24.9229Z" fill="#30363D"/>
<path id="Vector_283" d="M48.4615 26.3073H47.0771V27.6917H48.4615V26.3073Z" fill="#30363D"/>
<path id="Vector_284" d="M44.3083 26.3073H42.9239V27.6917H44.3083V26.3073Z" fill="#30363D"/>
<path id="Vector_285" d="M45.6927 26.3073H44.3083V27.6917H45.6927V26.3073Z" fill="#30363D"/>
<path id="Vector_286" d="M47.0771 26.3073H45.6927V27.6917H47.0771V26.3073Z" fill="#30363D"/>
<path id="Vector_287" d="M41.5395 24.9229H40.1551V26.3073H41.5395V24.9229Z" fill="#30363D"/>
<path id="Vector_288" d="M42.9239 24.9229H41.5395V26.3073H42.9239V24.9229Z" fill="#30363D"/>
<path id="Vector_289" d="M44.3083 24.9229H42.9239V26.3073H44.3083V24.9229Z" fill="#30363D"/>
<path id="Vector_290" d="M41.5395 27.6917H40.1551V29.0761H41.5395V27.6917Z" fill="#30363D"/>
<path id="Vector_291" d="M41.5395 26.3073H40.1551V27.6917H41.5395V26.3073Z" fill="#30363D"/>
<path id="Vector_292" d="M42.9239 26.3073H41.5395V27.6917H42.9239V26.3073Z" fill="#30363D"/>
<path id="Vector_293" d="M44.3083 30.4624H42.9239V31.8468H44.3083V30.4624Z" fill="#30363D"/>
<path id="Vector_294" d="M42.9239 30.4624H41.5395V31.8468H42.9239V30.4624Z" fill="#30363D"/>
<path id="Vector_295" d="M42.9239 29.078H41.5395V30.4624H42.9239V29.078Z" fill="#30363D"/>
<path id="Vector_296" d="M44.3083 29.078H42.9239V30.4624H44.3083V29.078Z" fill="#30363D"/>
<path id="Vector_297" d="M44.3083 27.6917H42.9239V29.0761H44.3083V27.6917Z" fill="#30363D"/>
<path id="Vector_298" d="M42.9239 27.6917H41.5395V29.0761H42.9239V27.6917Z" fill="#30363D"/>
<path id="Vector_299" d="M37.3844 34.6156H36V36H37.3844V34.6156Z" fill="#30363D"/>
<path id="Vector_300" d="M38.7688 34.6156H37.3844V36H38.7688V34.6156Z" fill="#30363D"/>
<path id="Vector_301" d="M41.5395 33.2312H40.1551V34.6156H41.5395V33.2312Z" fill="#30363D"/>
<path id="Vector_302" d="M40.1532 33.2312H38.7688V34.6156H40.1532V33.2312Z" fill="#30363D"/>
<path id="Vector_303" d="M42.9239 31.8468H41.5395V33.2312H42.9239V31.8468Z" fill="#30363D"/>
<path id="Vector_304" d="M41.5395 31.8468H40.1551V33.2312H41.5395V31.8468Z" fill="#30363D"/>
<path id="Vector_305" d="M41.5395 23.5385H40.1551V24.9229H41.5395V23.5385Z" fill="#30363D"/>
<path id="Vector_306" d="M38.7688 24.9229H37.3844V26.3073H38.7688V24.9229Z" fill="#30363D"/>
<path id="Vector_307" d="M38.7688 23.5385H37.3844V24.9229H38.7688V23.5385Z" fill="#30363D"/>
<path id="Vector_308" d="M40.1532 23.5385H38.7688V24.9229H40.1532V23.5385Z" fill="#30363D"/>
<path id="Vector_309" d="M40.1532 22.1541H38.7688V23.5385H40.1532V22.1541Z" fill="#30363D"/>
<path id="Vector_310" d="M38.7688 22.1541H37.3844V23.5385H38.7688V22.1541Z" fill="#30363D"/>
<path id="Vector_311" d="M37.3844 27.6917H36V29.0761H37.3844V27.6917Z" fill="#30363D"/>
<path id="Vector_312" d="M36 27.6917H34.6156V29.0761H36V27.6917Z" fill="#30363D"/>
<path id="Vector_313" d="M36 26.3073H34.6156V27.6917H36V26.3073Z" fill="#30363D"/>
<path id="Vector_314" d="M37.3844 26.3073H36V27.6917H37.3844V26.3073Z" fill="#30363D"/>
<path id="Vector_315" d="M37.3844 24.9229H36V26.3073H37.3844V24.9229Z" fill="#30363D"/>
<path id="Vector_316" d="M36 24.9229H34.6156V26.3073H36V24.9229Z" fill="#30363D"/>
<path id="Vector_317" d="M34.6156 27.6917H33.2312V29.0761H34.6156V27.6917Z" fill="#30363D"/>
<path id="Vector_318" d="M33.2312 27.6917H31.8468V29.0761H33.2312V27.6917Z" fill="#30363D"/>
<path id="Vector_319" d="M33.2312 26.3073H31.8468V27.6917H33.2312V26.3073Z" fill="#30363D"/>
<path id="Vector_320" d="M34.6156 26.3073H33.2312V27.6917H34.6156V26.3073Z" fill="#30363D"/>
<path id="Vector_321" d="M34.6156 24.9229H33.2312V26.3073H34.6156V24.9229Z" fill="#30363D"/>
<path id="Vector_322" d="M33.2312 24.9229H31.8468V26.3073H33.2312V24.9229Z" fill="#30363D"/>
<path id="Vector_323" d="M31.8468 27.6917H30.4624V29.0761H31.8468V27.6917Z" fill="#30363D"/>
<path id="Vector_324" d="M30.4624 27.6917H29.078V29.0761H30.4624V27.6917Z" fill="#30363D"/>
<path id="Vector_325" d="M30.4624 26.3073H29.078V27.6917H30.4624V26.3073Z" fill="#30363D"/>
<path id="Vector_326" d="M31.8468 26.3073H30.4624V27.6917H31.8468V26.3073Z" fill="#30363D"/>
<path id="Vector_327" d="M31.8468 24.9229H30.4624V26.3073H31.8468V24.9229Z" fill="#30363D"/>
<path id="Vector_328" d="M37.3844 29.078H36V30.4624H37.3844V29.078Z" fill="#30363D"/>
<path id="Vector_329" d="M36 30.4624H34.6156V31.8468H36V30.4624Z" fill="#30363D"/>
<path id="Vector_330" d="M34.6156 30.4624H33.2312V31.8468H34.6156V30.4624Z" fill="#30363D"/>
<path id="Vector_331" d="M33.2312 30.4624H31.8468V31.8468H33.2312V30.4624Z" fill="#30363D"/>
<path id="Vector_332" d="M36 29.078H34.6156V30.4624H36V29.078Z" fill="#30363D"/>
<path id="Vector_333" d="M40.1532 27.6917H38.7688V29.0761H40.1532V27.6917Z" fill="#30363D"/>
<path id="Vector_334" d="M38.7688 27.6917H37.3844V29.0761H38.7688V27.6917Z" fill="#30363D"/>
<path id="Vector_335" d="M29.0761 31.845V30.4606H27.6917V31.845H29.0761Z" fill="#30363D"/>
<path id="Vector_336" d="M29.0761 30.4606V29.0762H27.6917V30.4606H29.0761Z" fill="#30363D"/>
<path id="Vector_337" d="M30.4605 30.4624V29.078H29.0761V30.4624H30.4605Z" fill="#30363D"/>
<path id="Vector_338" d="M27.6917 31.845V30.4606H26.3073V31.845H27.6917Z" fill="#30363D"/>
<path id="Vector_339" d="M31.8468 31.8468V30.4624H30.4624V31.8468H31.8468Z" fill="#30363D"/>
<path id="Vector_340" d="M31.845 30.4624V29.078H30.4606V30.4624H31.845Z" fill="#30363D"/>
<path id="Vector_341" d="M29.0761 23.5385H27.6917V24.9229H29.0761V23.5385Z" fill="#30363D"/>
<path id="Vector_342" d="M27.6917 27.6917H26.3073V29.0761H27.6917V27.6917Z" fill="#30363D"/>
<path id="Vector_343" d="M27.6917 26.3073H26.3073V27.6917H27.6917V26.3073Z" fill="#30363D"/>
<path id="Vector_344" d="M29.0761 26.3073H27.6917V27.6917H29.0761V26.3073Z" fill="#30363D"/>
<path id="Vector_345" d="M29.0761 24.9229H27.6917V26.3073H29.0761V24.9229Z" fill="#30363D"/>
<path id="Vector_346" d="M27.6917 24.9229H26.3073V26.3073H27.6917V24.9229Z" fill="#30363D"/>
<path id="Vector_347" d="M31.8468 23.5385H30.4624V24.9229H31.8468V23.5385Z" fill="#30363D"/>
<path id="Vector_348" d="M30.4624 23.5385H29.078V24.9229H30.4624V23.5385Z" fill="#30363D"/>
<path id="Vector_349" d="M33.2312 20.7697H31.8468V22.1541H33.2312V20.7697Z" fill="#30363D"/>
<path id="Vector_350" d="M33.2312 23.5385H31.8468V24.9229H33.2312V23.5385Z" fill="#30363D"/>
<path id="Vector_351" d="M31.8468 20.7697H30.4624V22.1541H31.8468V20.7697Z" fill="#30363D"/>
<path id="Vector_352" d="M30.4624 20.7697H29.078V22.1541H30.4624V20.7697Z" fill="#30363D"/>
<path id="Vector_353" d="M29.0761 22.1523V20.7679H27.6917V22.1523H29.0761Z" fill="#30363D"/>
<path id="Vector_354" d="M34.6156 22.1541V20.7697H33.2312V22.1541H34.6156Z" fill="#30363D"/>
<path id="Vector_355" d="M36 22.1541V20.7697H34.6156V22.1541H36Z" fill="#30363D"/>
<path id="Vector_356" d="M36 23.5385V22.1541H34.6156V23.5385H36Z" fill="#30363D"/>
<path id="Vector_357" d="M37.3844 23.5385V22.1541H36V23.5385H37.3844Z" fill="#30363D"/>
<path id="Vector_358" d="M27.6917 22.1541V20.7697H26.3073V22.1541H27.6917Z" fill="#30363D"/>
<path id="Vector_359" d="M26.3073 29.078H24.9229V30.4624H26.3073V29.078Z" fill="#30363D"/>
<path id="Vector_360" d="M24.9229 29.078H23.5385V30.4624H24.9229V29.078Z" fill="#30363D"/>
<path id="Vector_361" d="M24.9229 27.6917H23.5385V29.0761H24.9229V27.6917Z" fill="#30363D"/>
<path id="Vector_362" d="M26.3073 27.6917H24.9229V29.0761H26.3073V27.6917Z" fill="#30363D"/>
<path id="Vector_363" d="M26.3073 26.3073H24.9229V27.6917H26.3073V26.3073Z" fill="#30363D"/>
<path id="Vector_364" d="M24.9229 26.3073H23.5385V27.6917H24.9229V26.3073Z" fill="#30363D"/>
<path id="Vector_365" d="M26.3073 33.2312H24.9229V34.6156H26.3073V33.2312Z" fill="#30363D"/>
<path id="Vector_366" d="M24.9229 33.2312H23.5385V34.6156H24.9229V33.2312Z" fill="#30363D"/>
<path id="Vector_367" d="M24.9229 31.8468H23.5385V33.2312H24.9229V31.8468Z" fill="#30363D"/>
<path id="Vector_368" d="M26.3073 31.8468H24.9229V33.2312H26.3073V31.8468Z" fill="#30363D"/>
<path id="Vector_369" d="M26.3073 30.4624H24.9229V31.8468H26.3073V30.4624Z" fill="#30363D"/>
<path id="Vector_370" d="M24.9229 30.4624H23.5385V31.8468H24.9229V30.4624Z" fill="#30363D"/>
<path id="Vector_371" d="M23.5385 31.8468H22.1541V33.2312H23.5385V31.8468Z" fill="#30363D"/>
<path id="Vector_372" d="M22.1541 31.8468H20.7697V33.2312H22.1541V31.8468Z" fill="#30363D"/>
<path id="Vector_373" d="M20.7697 31.8468H19.3853V33.2312H20.7697V31.8468Z" fill="#30363D"/>
<path id="Vector_374" d="M23.5385 30.4624H22.1541V31.8468H23.5385V30.4624Z" fill="#30363D"/>
<path id="Vector_375" d="M23.5385 29.078H22.1541V30.4624H23.5385V29.078Z" fill="#30363D"/>
<path id="Vector_376" d="M19.3853 31.8468H18.0009V33.2312H19.3853V31.8468Z" fill="#30363D"/>
<path id="Vector_377" d="M31.8468 34.6156H30.4624V36H31.8468V34.6156Z" fill="#30363D"/>
<path id="Vector_378" d="M33.2312 34.6156H31.8468V36H33.2312V34.6156Z" fill="#30363D"/>
<path id="Vector_379" d="M27.6917 34.6156H26.3073V36H27.6917V34.6156Z" fill="#30363D"/>
<path id="Vector_380" d="M29.0761 34.6156H27.6917V36H29.0761V34.6156Z" fill="#30363D"/>
<path id="Vector_381" d="M30.4624 34.6156H29.078V36H30.4624V34.6156Z" fill="#30363D"/>
<path id="Vector_382" d="M27.6917 33.2312H26.3073V34.6156H27.6917V33.2312Z" fill="#30363D"/>
<path id="Vector_383" d="M36 34.6156H34.6156V36H36V34.6156Z" fill="#30363D"/>
<path id="Vector_384" d="M34.6156 34.6156H33.2312V36H34.6156V34.6156Z" fill="#30363D"/>
<path id="Vector_385" d="M23.5385 26.3073H22.1541V27.6917H23.5385V26.3073Z" fill="#30363D"/>
<path id="Vector_386" d="M20.7697 24.9229H19.3853V26.3073H20.7697V24.9229Z" fill="#30363D"/>
<path id="Vector_387" d="M22.1541 24.9229H20.7697V26.3073H22.1541V24.9229Z" fill="#30363D"/>
<path id="Vector_388" d="M23.5385 24.9229H22.1541V26.3073H23.5385V24.9229Z" fill="#30363D"/>
<path id="Vector_389" d="M23.5385 20.7697H22.1541V22.1541H23.5385V20.7697Z" fill="#30363D"/>
<path id="Vector_390" d="M23.5385 22.1541H22.1541V23.5385H23.5385V22.1541Z" fill="#30363D"/>
<path id="Vector_391" d="M24.9229 20.7697H23.5385V22.1541H24.9229V20.7697Z" fill="#30363D"/>
<path id="Vector_392" d="M26.3073 20.7697H24.9229V22.1541H26.3073V20.7697Z" fill="#30363D"/>
<path id="Vector_393" d="M19.3853 20.7697H18.0009V22.1541H19.3853V20.7697Z" fill="#30363D"/>
<path id="Vector_394" d="M20.7697 23.5385H19.3853V24.9229H20.7697V23.5385Z" fill="#30363D"/>
<path id="Vector_395" d="M20.7697 22.1541H19.3853V23.5385H20.7697V22.1541Z" fill="#30363D"/>
<path id="Vector_396" d="M22.1541 22.1541H20.7697V23.5385H22.1541V22.1541Z" fill="#30363D"/>
<path id="Vector_397" d="M19.3853 23.5385H18.0009V24.9229H19.3853V23.5385Z" fill="#30363D"/>
<path id="Vector_398" d="M17.9991 23.5385H16.6147V24.9229H17.9991V23.5385Z" fill="#30363D"/>
<path id="Vector_399" d="M17.9991 22.1541H16.6147V23.5385H17.9991V22.1541Z" fill="#30363D"/>
<path id="Vector_400" d="M19.3853 22.1541H18.0009V23.5385H19.3853V22.1541Z" fill="#30363D"/>
<path id="Vector_401" d="M16.6147 24.9229H15.2303V26.3073H16.6147V24.9229Z" fill="#30363D"/>
<path id="Vector_402" d="M15.2303 24.9229H13.8459V26.3073H15.2303V24.9229Z" fill="#30363D"/>
<path id="Vector_403" d="M15.2303 23.5385H13.8459V24.9229H15.2303V23.5385Z" fill="#30363D"/>
<path id="Vector_404" d="M16.6147 23.5385H15.2303V24.9229H16.6147V23.5385Z" fill="#30363D"/>
<path id="Vector_405" d="M17.9991 20.7697H16.6147V22.1541H17.9991V20.7697Z" fill="#30363D"/>
<path id="Vector_406" d="M16.6147 20.7697H15.2303V22.1541H16.6147V20.7697Z" fill="#30363D"/>
<path id="Vector_407" d="M16.6147 19.3853H15.2303V20.7697H16.6147V19.3853Z" fill="#30363D"/>
<path id="Vector_408" d="M15.2303 19.3853H13.8459V20.7697H15.2303V19.3853Z" fill="#30363D"/>
<path id="Vector_409" d="M11.0771 20.7697H9.69267V22.1541H11.0771V20.7697Z" fill="#30363D"/>
<path id="Vector_410" d="M12.4615 20.7697H11.0771V22.1541H12.4615V20.7697Z" fill="#30363D"/>
<path id="Vector_411" d="M12.4615 19.3853H11.0771V20.7697H12.4615V19.3853Z" fill="#30363D"/>
<path id="Vector_412" d="M13.8459 19.3853H12.4615V20.7697H13.8459V19.3853Z" fill="#30363D"/>
<path id="Vector_413" d="M8.30826 23.5385H6.92386V24.9229H8.30826V23.5385Z" fill="#30363D"/>
<path id="Vector_414" d="M8.30826 22.1541H6.92386V23.5385H8.30826V22.1541Z" fill="#30363D"/>
<path id="Vector_415" d="M8.30826 20.7697H6.92386V22.1541H8.30826V20.7697Z" fill="#30363D"/>
<path id="Vector_416" d="M9.69266 20.7697H8.30826V22.1541H9.69266V20.7697Z" fill="#30363D"/>
<path id="Vector_417" d="M9.69266 27.6917H8.30826V29.0761H9.69266V27.6917Z" fill="#30363D"/>
<path id="Vector_418" d="M8.30826 26.3073H6.92386V27.6917H8.30826V26.3073Z" fill="#30363D"/>
<path id="Vector_419" d="M8.30826 24.9229H6.92386V26.3073H8.30826V24.9229Z" fill="#30363D"/>
<path id="Vector_420" d="M9.69266 22.1541H8.30826V23.5385H9.69266V22.1541Z" fill="#30363D"/>
<path id="Vector_421" d="M15.2303 27.6917H13.8459V29.0761H15.2303V27.6917Z" fill="#30363D"/>
<path id="Vector_422" d="M13.8459 27.6917H12.4615V29.0761H13.8459V27.6917Z" fill="#30363D"/>
<path id="Vector_423" d="M13.8459 26.3073H12.4615V27.6917H13.8459V26.3073Z" fill="#30363D"/>
<path id="Vector_424" d="M15.2303 26.3073H13.8459V27.6917H15.2303V26.3073Z" fill="#30363D"/>
<path id="Vector_425" d="M15.2303 30.4624H13.8459V31.8468H15.2303V30.4624Z" fill="#30363D"/>
<path id="Vector_426" d="M13.8459 24.9229H12.4615V26.3073H13.8459V24.9229Z" fill="#30363D"/>
<path id="Vector_427" d="M13.8459 29.078H12.4615V30.4624H13.8459V29.078Z" fill="#30363D"/>
<path id="Vector_428" d="M15.2303 29.078H13.8459V30.4624H15.2303V29.078Z" fill="#30363D"/>
<path id="Vector_429" d="M17.9991 30.4624H16.6147V31.8468H17.9991V30.4624Z" fill="#30363D"/>
<path id="Vector_430" d="M16.6147 30.4624H15.2303V31.8468H16.6147V30.4624Z" fill="#30363D"/>
</g>
<defs>
<clipPath id="clip0_192_43">
<rect width="56.7697" height="36" fill="white"/>
</clipPath>
</defs>
</svg>
