<svg width="36" height="62" viewBox="0 0 36 62" fill="none" xmlns="http://www.w3.org/2000/svg">
<g id="Brown Logo">
<g id="Shield Reverse">
<g id="Group">
<path id="Vector" d="M8.84312 45.1323C8.84312 45.1323 8.96941 44.8755 9.41866 44.89C9.99213 44.9087 10.5532 45.066 11.0066 45.1385C11.2136 45.1716 11.3979 45.1882 11.549 45.1613V50.7427C11.549 50.7427 11.4703 50.8028 11.2861 50.8297C11.1743 50.8463 11.0231 50.8504 10.8265 50.8235C10.7064 50.8069 10.5677 50.7779 10.4103 50.7345C9.32757 50.426 8.84519 50.7821 8.84519 50.7821L9.33585 50.2604L8.84519 50.7614V45.1302L8.84312 45.1323ZM5.29465 50.7427V45.1613V45.182C5.77289 45.2648 6.58858 44.917 7.4229 44.89C7.87009 44.8755 7.99637 45.1281 7.99637 45.1281V45.1323V50.7635L7.90114 50.7138C7.90114 50.7138 7.51192 50.4488 6.43123 50.7345C6.39604 50.7427 6.36292 50.7531 6.33186 50.7614C5.72113 50.9167 5.31535 50.7552 5.30914 50.7531M1.63645 24.8455V42.033C1.63645 47.7139 3.05667 51.6475 6.09171 54.4113C9.10605 57.1544 13.6193 58.5477 18.0331 59.5912C22.5671 58.5208 26.9292 57.1834 29.9725 54.4113C33.0096 51.6475 34.4195 47.7139 34.4195 42.033V24.8455H1.63645ZM23.1053 28.04H23.921V26.8599C24.7533 27.0607 26.1114 26.6032 26.718 26.6032C27.395 26.6032 27.7366 26.8972 27.7366 26.8972C27.7366 26.8972 28.0844 26.6032 28.7551 26.6032C29.3617 26.6032 30.7178 27.0566 31.55 26.8599V28.04H32.3678V34.522H28.5316V35.0044H26.9416V34.522H23.1053V28.04ZM3.76678 28.0068H4.57626V26.8392C5.40023 27.038 6.81217 26.6032 7.41255 26.6053C8.08125 26.6053 8.42078 26.8951 8.42078 26.8951C8.42078 26.8951 8.76445 26.6053 9.42694 26.6053C10.0273 26.6053 11.3689 27.0545 12.1928 26.8578V28.0255H13.0603V34.5283H9.20542V35.0044H7.63201V34.5283L3.7647 34.5096V28.0068H3.76678ZM13.052 52.0698H9.21577V52.5729L7.62786 52.5522V52.0698H4.08974L3.79162 51.5916V45.5877H4.61145V44.4077C5.44164 44.6085 6.79974 44.153 7.40634 44.153C8.08125 44.153 8.42492 44.447 8.42492 44.447C8.42492 44.447 8.77273 44.153 9.44143 44.153C10.048 44.153 11.4041 44.6064 12.2343 44.4077V45.6064L13.052 45.5857V52.0677V52.0698ZM31.9786 52.0636H28.544V52.546H26.954V52.0636H23.1136V45.5732H23.9334V44.3932C24.7657 44.594 26.1238 44.1365 26.7304 44.1365C27.4074 44.1365 27.7511 44.4304 27.7511 44.4304C27.7511 44.4304 28.0989 44.1365 28.7676 44.1365C29.3742 44.1365 30.7323 44.5899 31.5645 44.3932V45.5732H32.3844V51.3949L31.9786 52.0615V52.0636ZM34.0468 42.3581H20.886V58.4173L18.0331 59.1647L15.1658 58.409V42.3581H2.00703V37.1285H15.1658V25.2161H20.9025V37.1285H34.0468V42.3581ZM27.2066 33.2136C27.2066 33.2136 26.7242 32.8762 25.6435 33.1826C24.8071 33.4207 24.5028 33.1909 24.5028 33.1909V27.6094C24.9831 27.6922 25.7988 27.3651 26.6331 27.3402C27.0824 27.3257 27.2066 27.5824 27.2066 27.5824V33.2136ZM28.0533 33.2136V27.5824C28.0533 27.5824 28.1817 27.3257 28.6289 27.3402C29.4632 27.3651 30.2789 27.6942 30.7571 27.6094V33.1909C30.7571 33.1909 30.4549 33.4207 29.6185 33.1826C28.5336 32.8741 28.0533 33.2136 28.0533 33.2136ZM7.99844 33.2136C7.99844 33.2136 7.51399 32.8741 6.42295 33.1826C5.58034 33.4207 5.27602 33.1909 5.27602 33.1909V27.6011C5.75839 27.6839 6.5803 27.3568 7.42083 27.3319C7.87215 27.3174 8.00052 27.5742 8.00052 27.5742V33.2136H7.99844ZM8.83898 33.2509V27.5762C8.83898 27.5762 8.96527 27.3174 9.40831 27.3319C10.2344 27.3568 11.079 27.6508 11.5531 27.568V33.1929C11.5531 33.1929 11.2053 33.4062 10.3772 33.166C9.30479 32.8555 8.83898 33.2509 8.83898 33.2509ZM28.1734 45.1178C28.1734 45.1178 28.3018 44.8611 28.7489 44.8756C29.3224 44.8942 29.8855 45.0515 30.3368 45.124C30.5439 45.1571 30.7302 45.1737 30.8793 45.1468V50.7345C30.8793 50.7345 30.8006 50.7945 30.6143 50.8214C30.5025 50.838 30.3513 50.8421 30.1547 50.8152C30.0346 50.7986 29.8959 50.7697 29.7385 50.7262C28.6558 50.4156 28.1713 50.7531 28.1713 50.7531V45.1178H28.1734ZM27.3246 50.7531L27.3059 50.7427C27.3059 50.7427 26.8401 50.4156 25.7574 50.7262C25.7222 50.7365 25.6891 50.7448 25.6559 50.7531C25.0452 50.9084 24.745 50.8028 24.6518 50.7531L24.6187 50.7324V45.1447H24.6373C25.1156 45.2316 25.9126 44.8983 26.749 44.8735C27.1962 44.859 27.3246 45.1157 27.3246 45.1157V50.751V50.7531Z" fill="#334155"/>
<g id="Group_2">
<path id="Vector_2" d="M12.9733 8.13004C13.0396 8.23976 13.1265 8.38054 13.2466 8.58343C13.5654 9.11342 14.0582 11.1133 14.6958 11.7758C15.0354 11.5439 15.6233 11.2458 15.9587 11.1237C15.8821 10.9932 15.5239 10.3784 15.1264 9.85665C14.3604 8.83393 13.8118 8.28945 13.7497 8.20042C13.5427 8.19835 13.1907 8.20871 12.9733 8.1321" fill="#334155"/>
<path id="Vector_3" d="M18.7163 10.7924C18.8675 9.74694 18.5217 8.00997 18.3168 7.57521C18.058 7.50896 17.7888 7.41787 17.5694 7.31021C17.5404 7.44271 17.3458 8.15282 17.2795 9.19624C17.2443 9.75522 17.2588 10.6061 17.3624 10.7924C17.6915 10.7593 18.2422 10.749 18.7143 10.7924" fill="#334155"/>
<path id="Vector_4" d="M23.6685 16.9557C23.6685 13.8088 21.2172 11.341 18.087 11.341C14.9567 11.341 12.5034 13.8544 12.5034 16.9557C12.5034 17.1047 12.5365 17.3925 12.5841 17.6968C14.1907 17.3221 16.3189 17.3946 17.2651 18.1481C18.7598 17.291 21.0164 17.2703 22.6209 18.1461C23.2689 17.8128 23.5235 17.761 23.6188 17.7279C23.6395 17.5084 23.6685 17.1109 23.6685 16.9577M16.8634 15.0406C16.8469 15.4009 16.5404 15.6783 16.1823 15.6597C15.8241 15.6431 15.5488 15.3325 15.5674 14.9744L15.5736 14.9019C15.5177 14.817 15.2258 14.7218 14.7931 14.9868C14.5757 15.1214 14.3314 15.0282 14.7103 14.699C15.1119 14.3471 15.495 14.1442 15.8303 14.1028H15.8407C16.408 14.0614 17.145 14.1773 17.4886 14.3181C17.6315 14.3761 17.4824 15.082 17.4514 15.0738C17.3334 15.0468 17.0787 14.9392 16.8655 14.9889V15.0406H16.8634ZM18.7246 16.9971C18.6107 17.3304 17.4369 17.436 17.2216 17.0033C17.1367 16.8314 17.0187 16.3884 17.1781 16.4795C17.439 16.6327 18.383 16.525 18.561 16.4795C18.7184 16.4381 18.6149 16.2186 18.7143 16.2455C18.8302 16.2787 18.8302 16.6824 18.7246 16.9971ZM21.4864 15.1504C21.1924 14.9061 20.8052 14.7984 20.6582 14.9061L20.6645 14.9558C20.6955 15.316 20.4305 15.6307 20.0744 15.6638C19.7163 15.6948 19.4016 15.4278 19.3705 15.0696V15.0406C19.1366 14.9661 18.766 15.0965 18.7143 15.0758C18.6853 15.0613 18.5259 14.3968 18.7329 14.3119C19.2939 14.0821 21.0972 13.9703 21.623 14.9889C21.6851 15.1131 21.6458 15.2767 21.4905 15.1483" fill="#334155"/>
<path id="Vector_5" d="M21.8259 8.06793C21.1696 8.62691 20.1676 9.98088 20.0392 11.0657C20.3477 11.1899 21.1613 11.5812 21.2711 11.6744C22.0785 10.8732 21.9149 9.99123 22.2296 9.3101C22.3662 9.01612 22.4987 8.78425 22.5753 8.65175C22.3145 8.5089 22.0309 8.30601 21.8259 8.07" fill="#334155"/>
<path id="Vector_6" d="M25.7408 10.2127C25.5959 10.2935 25.2543 10.5026 25.1404 10.5895C24.3661 11.1775 22.6851 11.9663 22.2979 12.3969C22.6064 12.6722 23.0619 13.165 23.2689 13.579C23.4573 13.5873 23.9997 13.1443 25.0742 11.871C25.4199 11.4653 25.7864 11.25 26.4509 10.8773C26.1776 10.6806 25.9396 10.4508 25.7408 10.2127Z" fill="#334155"/>
<path id="Vector_7" d="M12.2032 14.9123C11.8409 14.5521 11.1184 14.2415 10.1785 14.3161C8.25516 14.4672 6.99021 14.343 6.26354 14.2395C5.0193 14.0593 4.24708 14.2353 3.626 14.2353C1.73375 14.2353 3.67775 14.4072 3.90134 14.4941C4.79157 14.8481 6.58651 15.2953 7.99844 15.1918C8.68785 15.1442 9.84307 15.5665 10.0418 15.6348C10.549 15.817 11.4682 16.1151 11.963 16.1048C11.99 15.8771 12.108 15.198 12.2053 14.9123" fill="#334155"/>
<path id="Vector_8" d="M13.7518 12.5356C12.785 11.751 11.8968 11.5833 10.4787 10.9146C10.1578 10.7634 9.61741 10.397 9.5905 10.3825C9.55323 10.3556 9.48077 10.3101 9.39382 10.2562C9.311 10.5233 9.14124 10.8856 8.98597 11.0885C9.20542 11.3763 10.7892 13.194 12.8181 13.7612C13.0396 13.3699 13.3978 12.9207 13.7518 12.5356Z" fill="#334155"/>
<path id="Vector_9" d="M34.0737 13.9434C33.9785 13.9289 33.6162 13.8792 33.3864 13.8813C33.082 13.8813 31.078 13.8916 30.5294 13.9765C29.4094 14.1525 27.2397 14.0614 26.0493 14.0159C25.1611 13.9807 24.1363 14.3305 23.8258 14.4982C23.8258 14.4982 24.1674 15.3595 24.1902 15.9433C24.569 16.0116 24.9313 15.5313 26.0099 15.5479C27.1341 15.5665 29.9 15.4154 31.2995 14.8667C32.345 14.4589 33.2228 14.2539 33.935 14.1111C34.1731 14.0614 34.5499 14.0138 34.0758 13.9413" fill="#334155"/>
<path id="Vector_10" d="M7.3256 6.30405C6.49127 6.49451 5.63003 6.69326 5.36917 8.0286L7.3256 6.30405Z" fill="#334155"/>
<path id="Vector_11" d="M5.07726 6.8299C4.98203 6.76986 4.91164 6.72638 4.88473 6.70775C3.27819 5.63534 4.01935 7.01415 4.64044 7.62282C4.64044 7.62282 4.67356 7.15079 5.07726 6.8299Z" fill="#334155"/>
<path id="Vector_12" d="M11.166 3.06611C10.9652 2.80112 10.667 2.46573 10.253 2.09929C9.97349 1.84878 9.74163 1.97921 9.90932 2.47194C9.97557 2.66241 10.0315 2.83217 10.0853 2.99158C10.0853 2.99158 10.5573 2.93154 11.166 3.06611Z" fill="#334155"/>
<path id="Vector_13" d="M18.4762 1.49476C18.4182 1.00824 18.3561 0.608677 18.2857 0.378875C18.1056 -0.207017 17.8923 0.252587 17.8592 0.434772C17.8199 0.679066 17.764 1.01652 17.6998 1.40574C17.6998 1.40574 18.2319 1.71007 18.4741 1.49476" fill="#334155"/>
<path id="Vector_14" d="M25.2522 3.47602C25.2998 3.36215 25.3454 3.26071 25.3806 3.18204C25.7242 2.45951 25.5379 2.27732 25.1777 2.59822C24.7698 2.96052 24.5131 3.2193 24.3185 3.4284C24.3185 3.4284 24.3827 3.6934 24.6001 3.78656C24.7968 3.87144 25.1156 3.78656 25.1156 3.78656C25.1156 3.78656 25.1736 3.66649 25.2522 3.47395" fill="#334155"/>
<path id="Vector_15" d="M32.1028 6.39305C32.2332 6.22535 32.4154 6.03074 32.4982 5.93551C32.5955 5.81129 32.9371 5.24403 32.0262 5.71813C31.9786 5.74297 31.8337 5.82785 31.7219 5.88996C31.7219 5.88996 32.051 6.1177 32.1028 6.39305Z" fill="#334155"/>
<path id="Vector_16" d="M9.02324 8.31636C9.11226 8.23976 9.23647 8.25011 9.34827 8.28531C10.2965 8.59378 11.6566 8.38468 12.2902 7.37438C12.3792 7.2336 12.5551 7.18391 12.7083 7.24602C13.3626 7.51309 14.7062 7.63731 16.3396 5.96866C16.4618 5.84237 16.6605 5.85893 16.7972 5.96866C18.2339 7.12802 19.7287 7.20048 21.2462 6.18604C21.3394 6.12186 21.4595 6.04111 21.565 6.08459C21.6706 6.12807 21.7472 6.21916 21.77 6.33096C22.2544 8.5855 24.5939 8.38468 25.2998 8.27081C25.3909 8.25632 25.482 8.2791 25.5566 8.33292C25.6311 8.38675 25.6787 8.46956 25.6911 8.56273C25.7677 9.09065 26.3495 10.1134 27.3556 10.6351C28.2169 11.0802 29.1526 11.045 30.1422 10.5336C30.2416 10.4819 30.3596 10.4819 30.459 10.5336C31.7281 11.2168 32.8709 11.2562 33.5934 10.6454C34.1027 10.2148 34.3097 9.51092 34.1068 8.89604C33.8812 8.21078 33.2042 7.7843 32.2498 7.72633C32.0883 7.71598 31.9579 7.5959 31.933 7.43649C31.8482 6.88993 31.5438 6.44275 31.0532 6.14256C30.3058 5.68502 29.2085 5.6312 28.1154 5.99764C28.0202 6.02869 27.9146 6.01834 27.8277 5.96451C27.7407 5.91069 27.6827 5.82167 27.6682 5.72022C27.6082 5.29788 27.426 4.72648 26.9002 4.40145C26.3453 4.05985 25.5069 4.06813 24.4759 4.42629C24.3164 4.48219 24.1384 4.4118 24.0618 4.26067C23.3993 2.9833 22.4677 2.15311 21.3704 1.8612C20.387 1.59828 19.2939 1.78874 18.3727 2.38499C18.2526 2.46366 18.0952 2.45745 17.9814 2.37049C17.0539 1.67074 15.9442 1.44715 14.936 1.75769C13.9547 2.05995 13.2052 2.8301 12.8284 3.92735C12.7974 4.01637 12.7332 4.08883 12.6483 4.12817C12.5634 4.16751 12.4661 4.16957 12.3792 4.13438C10.8741 3.52779 9.64639 3.54228 8.82656 4.17993C8.12266 4.72648 7.90528 5.58979 7.93634 5.8403C7.95911 6.0142 7.85559 6.17568 7.68583 6.21709L7.3256 6.30404C6.49127 6.49451 5.63003 6.69325 5.36918 8.02859C5.34019 8.17765 5.21805 8.28945 5.06692 8.30394C3.61771 8.44886 2.67159 8.98921 2.47077 9.78627C2.32999 10.3473 2.58878 10.9829 3.10221 11.3307C3.61772 11.6826 4.2388 11.6454 4.80606 11.2313C4.89922 11.163 5.02137 11.1464 5.12902 11.1878C5.97991 11.515 7.36079 11.4508 8.19719 10.7759C8.80378 10.2873 9.04187 9.56474 8.90523 8.63105C8.88867 8.51304 8.93215 8.39503 9.02324 8.31843M31.9848 8.41366C32.844 8.21285 33.877 8.84635 33.5851 10.0078C33.5354 10.2065 33.0489 10.219 33.0676 10.0161C33.1421 9.04303 32.6639 8.96436 32.0262 8.97057C31.786 8.97678 31.8026 8.453 31.9869 8.41366M28.3018 6.68705C29.1382 6.20674 30.8482 6.29162 31.3803 7.82777C31.4714 8.08863 31.1277 8.53167 30.9124 8.13625C30.2685 6.9479 29.2292 6.94997 28.3618 7.28329C28.1672 7.35989 27.9912 6.86302 28.2997 6.68705M24.7077 4.91695C25.4841 4.6416 26.8049 4.51738 27.159 5.82166C27.2604 6.18603 26.8153 6.35994 26.7159 6.10529C26.3557 5.16124 25.6787 5.19851 24.8692 5.45729C24.4966 5.57944 24.5856 4.95835 24.7098 4.91695M18.3664 3.44704C18.9254 2.53198 21.8507 1.67902 23.3517 4.26895C23.5111 4.55051 23.2979 4.71406 23.1302 4.83C23.0122 4.91488 22.9397 4.72027 22.861 4.59398C21.5878 2.56717 19.2836 3.10131 18.6625 4.04122C18.5362 4.23168 18.2008 3.71618 18.3644 3.44704M13.6503 3.59403C14.1638 2.77627 15.9276 1.51547 17.4886 2.90256C17.6646 3.05576 17.4555 3.62509 17.2588 3.49466C15.8303 2.50713 14.7062 3.30005 14.1099 4.0143C13.8242 4.35383 13.5261 3.79278 13.6483 3.59403M5.21598 9.32252C4.61766 9.32252 4.13943 9.33494 3.71709 9.79455C3.26784 10.2852 3.37756 10.5543 3.29268 10.6413C3.17053 10.7634 2.86206 10.5481 2.8662 10.3059C2.89311 9.15276 4.27606 8.7035 5.09797 8.7946C5.41058 8.83186 5.49132 9.32045 5.2139 9.32045M7.64856 7.3868C6.7749 7.4841 6.51819 7.91266 6.36292 8.40538C6.29874 8.58964 5.80808 8.45714 5.88675 8.09277C6.11862 7.01001 7.28626 6.74501 7.71067 6.83611C7.85352 6.86302 7.81005 7.37024 7.64856 7.38473M8.39593 6.21916C8.57605 5.26269 9.50561 3.86938 11.6297 4.4118C11.8906 4.47805 11.7374 5.14261 11.4558 5.03288C9.90518 4.42215 9.12675 5.60428 8.87624 6.53798C8.84105 6.66427 8.32347 6.61666 8.39593 6.22123" fill="#334155"/>
</g>
<path id="Vector_17" d="M26.2397 21.6987C25.8195 21.1998 25.5462 20.5393 25.0866 20.2474C24.8547 20.1274 24.7015 19.8603 25.0059 19.6905C25.3081 19.6015 25.5959 19.8768 25.9603 20.3779C26.0555 20.4979 26.1714 20.6284 26.2749 20.7629C26.8029 21.3592 26.8753 21.9968 27.3743 21.9968C28.0264 22.0299 28.633 21.8788 29.0636 21.6159C30.4176 22.2246 32.9144 21.9471 33.5375 21.5248C34.7259 20.7174 33.9888 19.0053 32.8088 18.3883C30.3907 17.2207 28.2293 18.1834 27.631 18.4587C27.0824 18.0881 26.1818 17.9204 25.039 17.9473C23.7865 18.0302 23.1985 18.2103 22.3745 18.6223C20.8591 17.7362 18.7701 17.7755 17.2671 18.6119C16.6564 18.1254 15.5094 17.9556 14.3687 17.9908C13.4185 18.0384 12.5179 18.1875 11.992 18.527C11.3337 18.0426 9.10812 17.1938 6.50162 18.2786C5.95093 18.0902 4.78329 17.4422 3.19331 17.9701C1.26173 18.6119 1.53293 20.3779 2.16644 21.2101C3.02561 22.355 4.65079 22.1624 5.17043 21.5766C5.03793 21.2598 4.79778 21.0238 4.54727 20.7029C4.33403 20.4317 4.12079 20.2081 3.99036 20.1584C3.54939 20.1563 3.70674 19.6905 3.86201 19.6491C4.35267 19.4587 4.9779 20.324 5.57414 21.0424C5.88261 21.413 6.04409 22.0175 6.46436 22.0134C7.37943 21.9968 7.76865 21.7318 8.09161 21.5538C8.61953 21.8602 11.1391 22.3508 13.0624 21.5745C13.3253 21.7712 14.3811 22.3219 15.7392 21.6387C15.2134 21.0838 14.9484 20.5104 14.4515 20.1315C14.1182 19.9742 14.1824 19.6553 14.3501 19.5974C14.7041 19.4897 15.0623 19.8706 15.3769 20.293C15.5633 20.5435 15.7682 20.823 15.9649 21.03C16.3314 21.4544 16.644 21.9803 17.0001 21.9865C17.7557 22.003 18.1656 21.8022 18.4824 21.5517C18.6998 21.7091 18.971 21.8353 19.4678 21.9223C19.8239 21.9844 20.2649 22.032 20.9502 22.032C21.8425 22.0196 22.507 21.9533 22.9294 21.8229C23.2006 21.7422 23.4159 21.5993 23.5215 21.5082C23.5504 21.5041 24.805 22.3032 26.2418 21.6925L26.2397 21.6987ZM8.56777 21.0983C7.85145 20.7816 7.30697 19.144 7.07924 18.9162C7.00057 18.8272 8.30692 18.3552 9.68159 18.4566C12.0417 18.6305 12.0811 20.1253 12.6421 20.8437C12.8491 21.1087 10.7374 21.7091 8.5657 21.0983H8.56777ZM19.1407 21.206C18.4265 20.8871 17.8779 19.2392 17.6667 19.028C17.5818 18.9452 18.9378 18.4628 20.3125 18.5809C22.6519 18.7796 22.6747 20.2288 23.2399 20.9596C23.4449 21.2246 21.3021 21.8188 19.1428 21.206H19.1407ZM33.523 20.7402C33.3243 21.1811 31.873 21.738 29.7033 21.1273C28.987 20.8085 28.4301 19.1688 28.221 18.9576C28.1361 18.8748 29.4528 18.3966 30.8296 18.498C33.1649 18.6699 33.7549 20.2267 33.5251 20.7402H33.523Z" fill="#334155"/>
</g>
</g>
</g>
</svg>
