<svg width="36" height="42" viewBox="0 0 36 42" fill="none" xmlns="http://www.w3.org/2000/svg">
<g id="BSE Logo 1" clip-path="url(#clip0_225_511)">
<path id="Vector" d="M0.402692 9.9992C0.265399 10.0779 0.174385 10.1997 0.0972541 10.3386C-0.0230699 10.5545 0.00161194 10.7859 0.00161194 11.0158C6.93243e-05 17.4917 0.00161194 23.9676 6.93243e-05 30.4435C6.93243e-05 30.8168 0.149703 31.096 0.473652 31.2811C0.794516 31.4647 1.11538 31.6483 1.4347 31.8334C3.40771 32.9734 5.37917 34.1149 7.35217 35.2534C9.00585 36.2067 10.6611 37.1585 12.3148 38.1118C14.0564 39.1176 15.7964 40.1249 17.5381 41.1292C17.9083 41.342 18.2677 41.3019 18.5839 41.0335C18.6966 40.9795 18.7891 40.8901 18.9125 40.8546C18.9665 40.8284 19.0236 40.8037 19.076 40.7728C20.4582 39.9768 21.8404 39.1809 23.2226 38.3833C27.3105 36.0231 31.3984 33.6614 35.4895 31.3027C35.8381 31.1022 36.0001 30.8245 36.0001 30.4188C35.9954 23.8719 35.9954 17.3251 35.9985 10.7782C35.9985 10.3987 35.8366 10.1334 35.5126 9.94984C34.9711 9.64132 34.4312 9.32817 33.8898 9.01656C31.545 7.6606 29.2002 6.30464 26.8539 4.95023C24.105 3.36288 21.3514 1.78015 18.6071 0.185089C18.1875 -0.0586444 17.8188 -0.0632722 17.3977 0.182004C15.1485 1.49323 12.8917 2.78902 10.6379 4.09099M14.2677 3.2734C15.3337 2.65636 16.4027 2.04857 17.464 1.42535C17.771 1.24487 18.0471 1.24641 18.3526 1.42381C20.3641 2.59157 22.3803 3.75161 24.395 4.91475C27.1501 6.50518 29.9037 8.09716 32.6588 9.6876C33.2033 10.0023 33.7432 10.3247 34.2955 10.6255C34.6287 10.806 34.7768 11.0544 34.7768 11.4415C34.7691 17.5842 34.7721 23.7285 34.7706 29.8727C34.7706 29.9714 34.7876 30.0733 34.7382 30.1674C34.695 30.2244 34.6858 30.2985 34.6441 30.3571C34.5624 30.5206 34.3973 30.5839 34.2523 30.6672C32.7467 31.5341 31.2365 32.3964 29.7309 33.2649C27.6206 34.482 25.5118 35.7053 23.4031 36.9255C23.3244 36.9718 23.2365 37.0011 23.1671 37.0613C21.6399 37.9437 20.1127 38.826 18.5855 39.7084C18.4976 39.7578 18.4112 39.8087 18.3263 39.8611C18.0517 40.0339 17.7833 40.0324 17.4995 39.8673C16.034 39.0158 14.5639 38.172 13.0953 37.3235C10.2507 35.6822 7.40616 34.0378 4.56004 32.3964C3.53266 31.8025 2.50682 31.2071 1.47481 30.6193C1.17554 30.4496 1.04288 30.2136 1.04288 29.8681C1.04596 23.7146 1.04596 17.5626 1.04133 11.4092C1.04133 11.0636 1.174 10.8276 1.47327 10.6548" fill="#30363D"/>
<path id="Vector_2" d="M33.1878 12.5291C33.1894 11.9769 33.0243 11.6992 32.5476 11.4323C29.7864 9.88199 27.0482 8.2931 24.3008 6.71809C22.2368 5.53336 20.1712 4.34863 18.1072 3.16082C18.0208 3.11146 17.9545 3.08677 17.8558 3.14539C17.2541 3.50482 16.6464 3.855 16.0401 4.2098C15.9676 4.26379 15.8828 4.29927 15.8025 4.34092C15.2302 4.67412 14.6564 5.00579 14.0825 5.33745C11.8843 6.61319 9.68762 7.88893 7.4894 9.16468C5.99923 10.0301 4.51061 10.8986 3.01581 11.7578C2.85075 11.8519 2.79985 11.9537 2.79985 12.1358C2.81836 17.757 2.83378 23.3783 2.83533 28.9996C2.83533 29.322 2.9356 29.484 3.21172 29.6398C5.8172 31.1192 8.41496 32.614 11.0158 34.1072C13.2742 35.403 15.5341 36.6973 17.7863 38.0039C17.99 38.1211 18.1319 38.1103 18.3247 37.9961C20.1697 36.9163 22.0208 35.8427 23.872 34.769C26.9109 33.0058 29.9483 31.2395 32.9919 29.484C33.1755 29.3791 33.2233 29.2665 33.2218 29.069C33.2017 23.5557 33.177 18.0424 33.1878 12.5291ZM10.9356 24.6062C10.9341 24.6201 10.931 24.6356 10.9294 24.651C10.8616 25.1261 10.8616 25.1277 10.3895 25.1138C8.74817 25.0675 7.10837 25.0181 5.46703 24.9688C5.41766 24.9672 5.35904 24.9904 5.29734 24.9101C7.52642 22.3293 10.1797 20.2437 13.0336 18.3293C13.0228 18.5114 12.9317 18.6194 12.8716 18.7351C11.9136 20.5893 11.2102 22.5268 10.9356 24.6062ZM20.1219 33.8203C19.4771 32.7081 18.8662 31.6514 18.2538 30.5947C18.2183 30.5083 18.1797 30.425 18.1196 30.3509C17.865 29.9221 17.6105 29.4902 17.3529 29.0613C17.3051 28.9811 17.3051 28.9317 17.3914 28.8747C19.3459 27.5881 20.8346 25.8558 22.1304 23.9383C22.1504 23.9074 22.1597 23.8658 22.2491 23.8596C21.936 27.2472 21.3529 30.5654 20.1219 33.8203ZM25.0644 15.6159C24.9256 16.617 24.6942 17.5981 24.3857 18.5607C23.7948 20.4134 22.7721 22.0347 21.6691 23.6082C20.6448 25.0706 19.5141 26.4404 18.1612 27.6174C17.7894 27.9414 17.3961 28.2391 16.9826 28.5075C16.816 28.6155 16.6618 28.6232 16.4828 28.5353C15.7794 28.1851 15.0744 27.8396 14.3648 27.5033C13.6753 27.1762 13.1061 26.6718 12.4828 26.2476C12.1897 26.0486 11.909 25.8311 11.6174 25.6321C11.4601 25.5241 11.3968 25.393 11.4076 25.2032C11.4616 24.2422 11.693 23.3166 11.9784 22.4019C12.4273 20.9564 13.0397 19.5789 13.7339 18.2337C13.7941 18.1242 13.8434 18.01 13.9098 17.902C14.6008 16.6109 15.3506 15.3567 16.3409 14.2646C17.1199 13.4053 17.9653 12.6232 18.9063 11.946C19.039 11.8504 19.1624 11.7856 19.3274 11.8843C20.2036 12.4134 21.0829 12.9379 21.9622 13.4639C22.0332 13.5195 22.1226 13.5457 22.1951 13.5997C23.0883 14.1319 23.9799 14.6672 24.8778 15.1917C25.0582 15.2966 25.0906 15.4308 25.0644 15.6159ZM25.43 14.0393C25.4207 14.2167 25.3899 14.3911 25.3791 14.5685C25.3668 14.7551 25.3143 14.7906 25.1431 14.6857C24.5646 14.3324 23.9769 13.9946 23.3953 13.646C22.135 12.8932 20.8747 12.1388 19.6159 11.383C19.5912 11.3691 19.5712 11.3459 19.5403 11.3182C20.1651 10.823 20.85 10.4636 21.5766 10.1797C22.4697 9.83109 23.3922 9.59507 24.3409 9.45006C24.5476 9.41921 24.6325 9.46857 24.7034 9.66757C25.1986 11.0837 25.5133 12.5291 25.43 14.0393Z" fill="#30363D"/>
</g>
<defs>
<clipPath id="clip0_225_511">
<rect width="36" height="41.2649" fill="white"/>
</clipPath>
</defs>
</svg>
