<svg width="36" height="36" viewBox="0 0 36 36" fill="none" xmlns="http://www.w3.org/2000/svg">
<g id="FSAB Logo 1" clip-path="url(#clip0_184_709)">
<path id="Vector" d="M18 0C8.05909 0 0 8.05909 0 18C0 27.9409 8.05909 36 18 36C27.9409 36 36 27.9409 36 18C36 8.05909 27.9409 0 18 0ZM23.6809 27.9682H12.7009C12.3245 27.9682 12.0191 27.6627 12.0191 27.2864C12.0191 26.91 12.3245 26.6045 12.7009 26.6045H15.99V16.5409H12.7009C12.3245 16.5409 12.0191 16.2355 12.0191 15.8591C12.0191 15.4827 12.3245 15.1773 12.7009 15.1773H15.99V13.3391C16.0282 11.8636 16.6636 10.5764 17.8309 9.60273C19.3255 8.35636 21.5973 7.75636 23.6127 8.07273L24.1882 8.16273V11.1627C24.1882 11.5391 23.8827 11.8445 23.5064 11.8445C23.13 11.8445 22.8245 11.5391 22.8245 11.1627V9.36C21.3464 9.28636 19.7536 9.77455 18.7036 10.65C18.1064 11.1491 17.3864 12.0218 17.3509 13.3555V15.1773H22.7809C23.1573 15.1773 23.4627 15.4827 23.4627 15.8591C23.4627 16.2355 23.1573 16.5409 22.7809 16.5409H17.3509V26.6045H23.6782C24.0545 26.6045 24.36 26.91 24.36 27.2864C24.36 27.6627 24.0545 27.9682 23.6782 27.9682H23.6809Z" fill="#30363D"/>
</g>
<defs>
<clipPath id="clip0_184_709">
<rect width="36" height="36" fill="white"/>
</clipPath>
</defs>
</svg>
